<svg width="60" height="43" viewBox="0 0 60 43" fill="none" xmlns="http://www.w3.org/2000/svg">
<path d="M27.0259 22.9487H33.7459V21.4287H31.4419V11.1727H30.0499C29.3779 11.5887 28.5939 11.8607 27.4899 12.0687V13.2367H29.6019V21.4287H27.0259V22.9487Z" fill="white"/>
<path fill-rule="evenodd" clip-rule="evenodd" d="M17 5.06277L30.4506 3L43.9012 5.06277V22.1063C43.9012 31.4702 30.4506 35.9241 30.4506 35.9241C30.4506 35.9241 17 31.4702 17 22.1063V5.06277Z" fill="#EABA5C"/>
<path d="M27.4766 23.1633H34.1966V21.6433H31.8926V11.3873H30.5006C29.8286 11.8033 29.0446 12.0753 27.9406 12.2833V13.4513H30.0526V21.6433H27.4766V23.1633Z" fill="white"/>
<path d="M50.1431 19.9869C50.1317 19.8854 50.1127 19.7818 50.0915 19.6857C50.0725 19.5821 50.0513 19.486 50.0247 19.3802C50.0057 19.2766 49.9672 19.1837 49.9309 19.0832C49.9521 19.1793 49.9787 19.2851 49.9902 19.3865C50.0016 19.488 50.0056 19.5872 50.017 19.6887C50.0188 19.7955 50.0227 19.8947 50.0266 19.994C50.0208 20.0986 50.015 20.2032 50.0114 20.3003C49.6377 20.151 49.3468 19.7723 49.2688 19.3082C49.2191 19.0567 49.2514 18.8044 49.3224 18.5879C49.3933 18.3713 49.5322 18.1745 49.7085 18.0457C49.9133 18.0724 50.1211 18.1735 50.2898 18.3533C50.4682 18.5276 50.5848 18.774 50.6333 19.0579C50.6459 19.127 50.6533 19.1864 50.6584 19.2533C50.6635 19.3201 50.6611 19.3849 50.6512 19.4474C50.641 19.5671 50.6135 19.6899 50.5656 19.7987C50.5428 19.8493 50.5199 19.8999 50.4949 19.9581C50.4645 20.0065 50.4341 20.0549 50.3984 20.0936C50.3269 20.171 50.2478 20.2462 50.1581 20.3019C50.1563 20.1951 50.1524 20.0959 50.1431 19.9869Z" fill="#F1CF8B"/>
<path d="M47.9089 21.1787C47.8186 21.0953 47.7456 21.0087 47.705 20.9233C47.676 20.8822 47.6621 20.8455 47.6429 20.799C47.6215 20.7601 47.6173 20.718 47.6056 20.6737C47.593 20.6046 47.6073 20.527 47.6367 20.4538C48.0515 20.3206 48.6747 20.3705 49.1945 20.6929C49.429 20.8427 49.5977 21.0224 49.7048 21.217C49.7583 21.3143 49.7893 21.405 49.8029 21.4989C49.8112 21.5831 49.8098 21.6726 49.7857 21.7556C49.5845 21.6318 49.3833 21.5081 49.1896 21.3865C48.9959 21.2649 48.8022 21.1433 48.6161 21.024C48.7032 21.0901 48.7828 21.1541 48.8677 21.2277C48.9139 21.2657 48.9548 21.2939 49.001 21.3318C49.0473 21.3698 49.0881 21.398 49.1344 21.4359C49.3108 21.5606 49.4904 21.7026 49.6872 21.8415C49.2674 21.9078 48.6888 21.7319 48.2294 21.4269C48.1143 21.3445 47.9992 21.2621 47.9089 21.1787Z" fill="#F1CF8B"/>
<path d="M50.5974 21.8601C50.7932 21.7207 50.9783 21.5618 51.158 21.3931C51.2035 21.3491 51.2468 21.3126 51.2923 21.2685C51.3378 21.2245 51.3757 21.1782 51.419 21.1417C51.5024 21.0515 51.5783 20.959 51.6617 20.8687C51.4873 21.0471 51.3098 21.2082 51.1118 21.3552C50.9138 21.5022 50.7105 21.6395 50.5093 21.7692C50.486 21.6806 50.4874 21.5911 50.4986 21.4962C50.5097 21.4014 50.5479 21.298 50.5936 21.1967C50.6818 20.977 50.8423 20.7619 51.06 20.547C51.5169 20.099 52.1102 19.8295 52.5488 19.924C52.5873 20.0169 52.6117 20.1303 52.6188 20.2468C52.6185 20.304 52.6161 20.3687 52.6062 20.4312C52.5962 20.4938 52.5841 20.5638 52.559 20.622C52.5219 20.7502 52.4577 20.8869 52.3731 21.0096C52.296 21.1344 52.1941 21.2602 52.0642 21.3697C51.6041 21.8005 51.021 21.9503 50.5974 21.8601Z" fill="#F1CF8B"/>
<path d="M39.9 32.3309C40.0876 32.6143 40.2468 32.9957 40.3207 33.4177C40.3565 33.6325 40.3729 33.8581 40.372 34.0867C40.3716 34.2011 40.3614 34.3208 40.3437 34.4383C40.3259 34.5558 40.3082 34.6733 40.2754 34.7864C40.2142 34.9976 40.1422 35.1893 40.0445 35.3572C39.9956 35.4411 39.9467 35.5251 39.8947 35.5918C39.8405 35.666 39.7809 35.7305 39.7235 35.7874C39.599 35.9067 39.4757 35.9935 39.3417 36.061C39.2098 36.1209 39.0717 36.1462 38.9422 36.1414C39.0472 35.7794 39.1629 35.4368 39.2581 35.0801C39.3084 34.9067 39.3587 34.7332 39.4069 34.5673C39.4309 34.4843 39.455 34.4013 39.479 34.3184C39.5031 34.2354 39.5271 34.1524 39.5534 34.0619C39.4977 34.2257 39.4292 34.3775 39.3682 34.5315C39.305 34.6931 39.2418 34.8546 39.1786 35.0162C39.1132 35.1853 39.05 35.3468 38.9771 35.5137C38.9117 35.6828 38.8387 35.8497 38.7712 36.0264C38.6397 35.7184 38.5917 35.3202 38.6051 34.9071C38.6168 34.6979 38.6381 34.4833 38.667 34.271C38.7034 34.0608 38.7549 33.8549 38.8161 33.6438C38.8796 33.425 38.9515 33.2333 39.032 33.0686C39.0711 32.99 39.1103 32.9114 39.1569 32.835C39.2014 32.7661 39.2459 32.6973 39.2861 32.6435C39.4757 32.4123 39.6747 32.2901 39.9 32.3309Z" fill="#F1CF8B"/>
<path d="M41.8362 34.0288C41.8107 34.2013 41.7777 34.3716 41.7522 34.5441C41.7191 34.7144 41.6937 34.8869 41.6584 35.0647C41.4739 34.7987 41.3405 34.4411 41.2655 34.0514C41.2253 33.8517 41.2023 33.6488 41.1967 33.4427C41.1835 33.2345 41.1875 33.0231 41.1991 32.8139C41.2071 32.7017 41.2205 32.5993 41.2316 32.5044C41.2525 32.4042 41.269 32.319 41.2877 32.2264C41.3305 32.0507 41.384 31.8945 41.4438 31.7728C41.5111 31.6534 41.5838 31.5436 41.6682 31.4782C41.7548 31.4052 41.8552 31.3689 41.9642 31.3596C42.0857 31.4766 42.1952 31.6064 42.3035 31.7687C42.4118 31.9309 42.5082 32.106 42.5829 32.2994C42.74 32.6883 42.8321 33.132 42.813 33.5926C42.7992 33.8093 42.7618 33.9947 42.7093 34.1757C42.6568 34.3567 42.5861 34.5161 42.4971 34.6538C42.4081 34.7915 42.3031 34.9001 42.1895 34.9816C42.1365 35.0235 42.0759 35.0631 42.0197 35.0877C41.9613 35.1199 41.8998 35.1347 41.8382 35.1496C41.8472 35.0622 41.8562 34.9749 41.8576 34.8854C41.8666 34.798 41.8702 34.701 41.8792 34.6136C41.8896 34.4368 41.9075 34.2621 41.9179 34.0852C41.9359 33.9106 41.9441 33.7412 41.9598 33.5741C41.9681 33.4048 41.986 33.2301 41.9942 33.0608C41.9634 33.2236 41.9423 33.381 41.919 33.5459C41.8979 33.7033 41.867 33.8661 41.8362 34.0288Z" fill="#F1CF8B"/>
<path d="M44.0945 32.4434C44.1072 32.766 44.1307 33.108 44.1391 33.4457C43.6726 33.0242 43.3575 32.2215 43.2463 31.4207C43.2348 31.3193 43.2234 31.2178 43.2195 31.1186C43.2175 31.069 43.2133 31.0269 43.2189 30.9794C43.217 30.9298 43.2204 30.8899 43.2184 30.8403C43.2213 30.6612 43.2402 30.5114 43.2774 30.3832C43.3145 30.2549 43.3646 30.1386 43.4383 30.0537C43.5044 29.9666 43.5942 29.9109 43.6946 29.8746C44.237 30.2036 44.7897 30.9198 44.934 31.8038C44.9645 32.0089 44.9692 32.1901 44.9566 32.3745C44.9386 32.5492 44.9056 32.7195 44.8468 32.866C44.7313 33.1514 44.546 33.3675 44.3288 33.468C44.2805 33.1269 44.2323 32.7859 44.1818 32.4524C44.1555 32.2894 44.1389 32.1211 44.1125 31.9581C44.0862 31.7951 44.0674 31.6343 44.0411 31.4713C44.0523 31.6299 44.056 31.7863 44.0673 31.945C44.0817 32.1208 44.0929 32.2794 44.0945 32.4434Z" fill="#F1CF8B"/>
<path d="M45.8567 30.06C45.895 30.2101 45.9332 30.3602 45.9714 30.5103C46.0075 30.6679 46.0533 30.8202 46.0893 30.9778C46.1254 31.1354 46.169 31.2953 46.205 31.4529C45.9457 31.3041 45.6996 31.0529 45.4937 30.7479C45.3908 30.5954 45.29 30.4353 45.2087 30.2646C45.1199 30.0916 45.0429 29.9058 44.9811 29.7243C44.9139 29.5332 44.8671 29.3561 44.8483 29.1953C44.822 29.0323 44.8107 28.8737 44.8231 28.7464C44.85 28.4844 44.9414 28.282 45.1241 28.1878C45.4063 28.286 45.7173 28.4824 45.9891 28.7575C46.1288 28.8961 46.2566 29.0476 46.3627 29.2174C46.4184 29.3072 46.4742 29.3969 46.5224 29.4845C46.5684 29.5796 46.6144 29.6747 46.6507 29.7751C46.7125 29.9566 46.7593 30.1337 46.7737 30.3096C46.782 30.3937 46.7903 30.4779 46.791 30.5599C46.7918 30.6419 46.7775 30.7195 46.7653 30.7895C46.7389 30.9372 46.692 31.0708 46.6343 31.1849C46.6018 31.2409 46.5692 31.2968 46.5312 31.3431C46.4933 31.3893 46.4425 31.4236 46.3992 31.4601C46.2925 31.1512 46.1708 30.8379 46.0717 30.5312C46.0184 30.3767 45.9628 30.2298 45.9171 30.0775C45.8893 30.0041 45.8691 29.9328 45.8413 29.8593C45.8136 29.7859 45.7858 29.7124 45.7581 29.6389C45.7783 29.7102 45.7963 29.789 45.8165 29.8603C45.8238 29.9197 45.844 29.9909 45.8567 30.06Z" fill="#F1CF8B"/>
<path d="M47.589 28.7389C47.6543 28.8805 47.7195 29.0221 47.7847 29.1636C47.5154 29.0774 47.2368 28.8821 46.981 28.6362C46.8543 28.5095 46.7372 28.3775 46.6245 28.2303C46.5118 28.0832 46.4013 27.9285 46.3081 27.7707C46.2095 27.6031 46.1336 27.442 46.0802 27.2876C46.0194 27.1309 45.9865 26.9906 45.974 26.8643C45.9689 26.7974 45.9691 26.7403 45.9769 26.6853C45.9771 26.6281 45.9924 26.5753 46.0077 26.5225C46.0362 26.4245 46.0926 26.3427 46.1694 26.2751C46.7419 26.3593 47.4694 26.7828 47.8971 27.4792C47.9903 27.637 48.0662 27.7981 48.1098 27.9579C48.1354 28.0389 48.1534 28.1177 48.1639 28.1943C48.1744 28.2709 48.1849 28.3476 48.19 28.4145C48.1906 28.5536 48.176 28.6884 48.1335 28.8069C48.116 28.8672 48.0909 28.9254 48.0605 28.9738C48.0302 29.0222 47.9922 29.0684 47.9565 29.1071C47.7914 28.8303 47.6318 28.5633 47.4721 28.2962C47.3949 28.1676 47.32 28.0314 47.2428 27.9027C47.1656 27.774 47.0885 27.6454 47.0113 27.5167C47.1386 27.7825 47.2584 28.0462 47.3857 28.3121C47.4563 28.4634 47.5238 28.5974 47.589 28.7389Z" fill="#F1CF8B"/>
<path d="M48.4 25.998C48.576 26.237 48.7519 26.4761 48.9279 26.7152C48.3834 26.6473 47.7574 26.2122 47.2913 25.6765C47.054 25.3951 46.8793 25.1236 46.8177 24.885C46.7782 24.7673 46.7538 24.6539 46.765 24.559C46.7783 24.4566 46.8121 24.3683 46.8739 24.2963C47.1566 24.2801 47.4896 24.344 47.8106 24.4779C48.1315 24.6119 48.4532 24.8278 48.7206 25.1179C48.8452 25.2522 48.9353 25.3928 49.0102 25.529C49.0852 25.6652 49.1354 25.8024 49.1704 25.9352C49.2233 26.204 49.2008 26.4509 49.0814 26.6371C48.8784 26.4065 48.6733 26.1835 48.4832 25.9648C48.2931 25.7462 48.0955 25.5254 47.9055 25.3067C47.9795 25.4181 48.0685 25.5339 48.1501 25.6475C48.2294 25.7686 48.3109 25.8822 48.4 25.998Z" fill="#F1CF8B"/>
<path d="M49.5948 23.4009C49.6887 23.6407 49.7007 23.8813 49.6288 24.073C49.1577 23.7238 48.719 23.3759 48.2856 23.0376C48.4769 23.2239 48.6703 23.4026 48.8691 23.5911C48.9799 23.6886 49.083 23.7839 49.1787 23.8771C49.2894 23.9746 49.3926 24.0699 49.4958 24.1653C49.2379 24.1804 48.9372 24.1178 48.6367 23.9979C48.3362 23.8781 48.036 23.7011 47.7715 23.4854C47.7048 23.4334 47.6403 23.3738 47.5758 23.3142C47.5189 23.2568 47.4619 23.1994 47.4125 23.1442C47.3115 23.0413 47.2375 22.9299 47.1862 22.8251C47.1594 22.7765 47.1424 22.7225 47.1253 22.6685C47.1061 22.622 47.0966 22.5702 47.0946 22.5206C47.081 22.4267 47.1072 22.3361 47.1485 22.25C47.4044 22.1852 47.7302 22.1897 48.061 22.2612C48.3844 22.3304 48.7257 22.4784 49.0226 22.6953C49.1635 22.8016 49.2698 22.9142 49.3665 23.0321C49.4609 23.1576 49.5402 23.2788 49.5948 23.4009Z" fill="#F1CF8B"/>
<path d="M39.9806 37.9469C40.1409 38.0424 40.3088 38.1401 40.4811 38.2228C40.6511 38.313 40.8309 38.3978 41.0076 38.4654C40.9214 38.4241 40.8375 38.3752 40.7536 38.3263C40.6696 38.2775 40.5879 38.2211 40.5039 38.1722C40.3382 38.0669 40.1822 37.9563 40.0263 37.8456C39.7219 37.6265 39.4306 37.3622 39.1641 37.0969C39.2884 37.0348 39.4309 36.9944 39.582 36.9809C39.7353 36.96 39.8992 36.9585 40.0793 36.9861C40.1666 36.9951 40.2571 37.0214 40.3498 37.0401C40.4403 37.0663 40.5383 37.0947 40.6364 37.1232C40.8303 37.1876 41.0327 37.279 41.2361 37.3952C41.3481 37.4603 41.4525 37.5233 41.5568 37.5863C41.659 37.6568 41.7612 37.7273 41.8559 37.7957C42.0484 37.9496 42.216 38.1045 42.3621 38.2777C42.6563 38.6164 42.8447 38.9818 42.866 39.3313C42.6019 39.5655 42.2076 39.7128 41.7599 39.7056C41.6456 39.7052 41.5335 39.6972 41.4138 39.687C41.2963 39.6693 41.1787 39.6516 41.0581 39.6166C40.8243 39.5488 40.5841 39.4464 40.3603 39.3161C40.144 39.188 39.959 39.0362 39.7935 38.8738C39.6281 38.7113 39.4918 38.5328 39.3803 38.3533C39.1573 37.9943 39.0456 37.6185 39.0394 37.2733C39.1834 37.3968 39.3372 37.515 39.4856 37.6235C39.6545 37.746 39.8105 37.8567 39.9806 37.9469Z" fill="#F1CF8B"/>
<path d="M42.7087 37.0536C42.4262 36.7591 42.2344 36.4337 42.1623 36.1184C42.327 36.1989 42.4917 36.2794 42.6586 36.3523C42.8255 36.4252 42.9968 36.4831 43.1681 36.5409C43.3394 36.5987 43.5204 36.6512 43.7014 36.7037C43.8846 36.7487 44.0625 36.7839 44.2425 36.8115C44.0615 36.7591 43.888 36.7088 43.7092 36.6487C43.5325 36.5812 43.3634 36.5158 43.1912 36.4331C43.0243 36.3602 42.8596 36.2797 42.697 36.1917C42.6206 36.145 42.5345 36.1037 42.4581 36.057C42.3817 36.0103 42.2977 35.9615 42.2213 35.9148C42.2743 35.8729 42.3274 35.8311 42.3857 35.7989C42.4463 35.7593 42.5122 35.7293 42.5835 35.7091C42.7207 35.6589 42.8783 35.6229 43.052 35.616C43.2279 35.6016 43.4069 35.6045 43.6042 35.629C43.8015 35.6535 44.0171 35.6996 44.2283 35.7609C44.6883 35.8943 45.1265 36.1031 45.4696 36.3579C45.6439 36.4902 45.7911 36.631 45.9038 36.7782C46.024 36.9275 46.1075 37.0907 46.1586 37.2527C46.0621 37.3882 45.9279 37.5128 45.7603 37.6114C45.6002 37.7122 45.4144 37.7891 45.205 37.8347C44.9955 37.8802 44.77 37.8966 44.536 37.886C44.4216 37.8855 44.2966 37.8656 44.1813 37.8404C44.0584 37.8129 43.9431 37.7877 43.8171 37.7429C43.593 37.6698 43.3852 37.5686 43.1969 37.4568C43.0107 37.3374 42.8462 37.1998 42.7087 37.0536Z" fill="#F1CF8B"/>
<path d="M44.9173 34.4562C45.2589 34.5471 45.6017 34.6056 45.9586 34.6437C46.1333 34.6616 46.3101 34.672 46.4945 34.6846C46.6736 34.6875 46.8451 34.6882 47.0285 34.6759C46.8517 34.6655 46.6673 34.653 46.4948 34.6275C46.3223 34.602 46.1423 34.5743 45.9644 34.5391C45.7866 34.5039 45.6185 34.4633 45.4525 34.4152C45.2791 34.3649 45.1207 34.319 44.9494 34.2611C44.9895 34.2073 45.035 34.1633 45.0827 34.1117C45.1281 34.0677 45.1909 34.0204 45.2493 33.9883C45.3704 33.909 45.5098 33.8513 45.6771 33.8099C45.8187 33.7446 45.9914 33.7129 46.1845 33.6953C46.3777 33.6778 46.5816 33.6797 46.7983 33.6934C47.7225 33.7489 48.6023 34.1266 48.9085 34.706C48.8422 34.8503 48.7435 34.9933 48.6092 35.1179C48.475 35.2425 48.3203 35.353 48.1323 35.4375C47.9442 35.522 47.738 35.5848 47.5134 35.626C47.4616 35.6355 47.4023 35.6428 47.3429 35.6502C47.2836 35.6575 47.2264 35.6572 47.1692 35.657C47.0527 35.6641 46.933 35.6539 46.8133 35.6438C45.9022 35.5431 45.1902 35.0096 44.9173 34.4562Z" fill="#F1CF8B"/>
<path d="M48.5452 32.9981C48.3403 32.9714 48.1518 32.9167 47.9751 32.8491C47.624 32.7065 47.3401 32.5015 47.1619 32.2699C47.3312 32.2781 47.5028 32.2788 47.6743 32.2795C47.8404 32.2704 48.0066 32.2614 48.1749 32.2448C48.3432 32.2282 48.5138 32.204 48.6843 32.1799C48.7707 32.1641 48.857 32.1482 48.9434 32.1324C49.0222 32.1144 49.1107 32.091 49.1895 32.0729C49.1032 32.0888 49.019 32.0971 48.9348 32.1054C48.8507 32.1137 48.759 32.1198 48.6748 32.1281C48.4989 32.1425 48.3349 32.144 48.1634 32.1433C47.8204 32.142 47.4893 32.1278 47.1519 32.079C47.1618 32.0164 47.202 31.9627 47.2399 31.9164C47.28 31.8627 47.3201 31.8089 47.3656 31.7648C47.4663 31.6714 47.5821 31.5823 47.7258 31.5095C47.7939 31.472 47.8771 31.4389 47.9528 31.4036C48.0284 31.3683 48.1116 31.3352 48.2001 31.3118C48.3794 31.2575 48.5716 31.2151 48.7745 31.1922C48.8856 31.1754 49.0022 31.1683 49.109 31.1665C49.2179 31.1573 49.3247 31.1555 49.4369 31.1635C49.6483 31.1676 49.8607 31.1965 50.0514 31.2436C50.4329 31.3379 50.7602 31.5063 50.9609 31.7444C50.8907 32.043 50.6889 32.3442 50.3676 32.5781C50.2108 32.6961 50.0281 32.7903 49.825 32.8704C49.6241 32.943 49.3973 32.9917 49.1697 33.0156C48.9539 33.0267 48.7425 33.0226 48.5452 32.9981Z" fill="#F1CF8B"/>
<path d="M50.9028 30.0841C50.6966 30.147 50.499 30.1796 50.3081 30.1897C50.1096 30.1975 49.9251 30.1849 49.7451 30.1572C49.3872 30.0944 49.0836 29.9572 48.8697 29.7644C49.0327 29.7381 49.1881 29.7096 49.3533 29.6757C49.5109 29.6396 49.6632 29.5938 49.823 29.5503C49.9753 29.5045 50.1297 29.4511 50.2864 29.3903C50.443 29.3294 50.5846 29.2642 50.7359 29.1936C50.5814 29.2469 50.427 29.3002 50.2672 29.3438C50.1073 29.3874 49.9497 29.4235 49.7845 29.4573C49.4639 29.5197 49.1477 29.567 48.8154 29.5851C48.8329 29.5248 48.8482 29.472 48.8808 29.416C48.9058 29.3579 48.9384 29.3019 48.9785 29.2481C49.0512 29.1384 49.1541 29.0374 49.272 28.9408C49.3348 28.8936 49.3975 28.8464 49.4678 28.8013C49.5381 28.7563 49.6084 28.7113 49.6862 28.6684C49.8419 28.5827 50.018 28.5112 50.207 28.4515C51.0139 28.1785 51.8918 28.196 52.3564 28.5678C52.3422 29.1524 51.7678 29.8362 50.9028 30.0841Z" fill="#F1CF8B"/>
<path d="M51.9355 26.974C51.2221 27.3477 50.438 27.3166 49.9601 27.0472C50.2593 26.9459 50.5349 26.8132 50.8127 26.673C50.9489 26.598 51.0926 26.5252 51.2235 26.4405C51.3597 26.3656 51.4927 26.2733 51.616 26.1864C51.4777 26.2689 51.3414 26.3439 51.1999 26.4092C51.0561 26.4819 50.9168 26.5396 50.7677 26.6027C50.4792 26.7235 50.1897 26.8194 49.882 26.8937C49.8904 26.6672 50.0003 26.4293 50.1953 26.2078C50.2853 26.0949 50.4001 25.981 50.5278 25.879C50.6652 25.7717 50.8177 25.6688 50.9831 25.5777C51.3355 25.3774 51.7276 25.2376 52.086 25.1862C52.4443 25.1347 52.7786 25.1662 53.0348 25.2978C53.0526 25.4338 53.0412 25.5858 53.005 25.7388C52.9688 25.8919 52.9078 26.0459 52.8069 26.1965C52.6126 26.4999 52.3256 26.7846 51.9355 26.974Z" fill="#F1CF8B"/>
<path d="M52.8229 23.4621C52.7686 23.5363 52.7069 23.6084 52.6376 23.6782C52.5682 23.748 52.4914 23.8157 52.4092 23.8736C52.103 24.1119 51.7734 24.2616 51.4506 24.3315C51.1278 24.4015 50.8215 24.3862 50.5673 24.3043C50.7035 24.2294 50.8268 24.1425 50.9479 24.0631C51.0712 23.9762 51.187 23.8872 51.3028 23.7981C51.544 23.6146 51.7595 23.4072 51.9696 23.1902C51.5129 23.581 50.9917 23.9123 50.4697 24.1616C50.4338 23.9468 50.4963 23.7032 50.6407 23.4589C50.7081 23.3395 50.7949 23.2093 50.9021 23.0932C51.004 22.9674 51.1361 22.8503 51.2681 22.7333C51.569 22.4853 51.9041 22.2881 52.2379 22.1805C52.5641 22.0707 52.8835 22.0407 53.1474 22.1172C53.1922 22.2447 53.21 22.3806 53.1987 22.5327C53.1941 22.6049 53.1797 22.6825 53.1654 22.7602C53.1511 22.8378 53.1195 22.9185 53.0879 22.9993C53.0269 23.1533 52.941 23.3083 52.8229 23.4621Z" fill="#F1CF8B"/>
<path d="M34.124 39.1104C34.9314 38.4124 35.8797 37.8207 36.8802 37.4158C37.3793 37.2171 37.9074 37.0596 38.4363 36.984C39.0072 36.9042 39.5654 36.7554 40.1023 36.5677C42.2572 35.8189 44.193 34.5569 45.8161 32.9917C47.4392 31.4264 48.7196 29.492 49.4507 27.3655C50.1839 25.2315 50.3192 22.9323 49.9859 20.7262C50.2824 22.9462 50.0869 25.2279 49.3171 27.3186C48.5473 29.4093 47.2445 31.28 45.6163 32.7784C43.9881 34.2767 42.0569 35.4665 39.9713 36.1454C39.4485 36.3127 38.9119 36.4433 38.3799 36.5016C37.8036 36.5716 37.2356 36.7258 36.7019 36.9308C35.6249 37.3462 34.6388 37.9269 33.7363 38.6709L34.124 39.1104Z" fill="#F1CF8B"/>
<path d="M10.8569 19.9869C10.8683 19.8854 10.8873 19.7818 10.9085 19.6857C10.9275 19.5821 10.9487 19.486 10.9753 19.3802C10.9943 19.2766 11.0328 19.1837 11.0691 19.0832C11.0479 19.1793 11.0213 19.2851 11.0098 19.3865C10.9984 19.488 10.9944 19.5872 10.983 19.6887C10.9812 19.7955 10.9773 19.8947 10.9734 19.994C10.9792 20.0986 10.985 20.2032 10.9886 20.3003C11.3623 20.151 11.6532 19.7723 11.7312 19.3082C11.7809 19.0567 11.7486 18.8044 11.6776 18.5879C11.6067 18.3713 11.4678 18.1745 11.2915 18.0457C11.0867 18.0724 10.8789 18.1735 10.7102 18.3533C10.5318 18.5276 10.4152 18.774 10.3667 19.0579C10.3541 19.127 10.3467 19.1864 10.3416 19.2533C10.3365 19.3201 10.3389 19.3849 10.3488 19.4474C10.359 19.5671 10.3865 19.6899 10.4344 19.7987C10.4572 19.8493 10.4801 19.8999 10.5051 19.9581C10.5355 20.0065 10.5659 20.0549 10.6016 20.0936C10.6731 20.171 10.7522 20.2462 10.8419 20.3019C10.8437 20.1951 10.8476 20.0959 10.8569 19.9869Z" fill="#F1CF8B"/>
<path d="M13.0911 21.1787C13.1814 21.0953 13.2544 21.0087 13.295 20.9233C13.324 20.8822 13.3379 20.8455 13.3571 20.799C13.3785 20.7601 13.3827 20.718 13.3944 20.6737C13.407 20.6046 13.3927 20.527 13.3633 20.4538C12.9485 20.3206 12.3253 20.3705 11.8055 20.6929C11.571 20.8427 11.4023 21.0224 11.2952 21.217C11.2417 21.3143 11.2107 21.405 11.1971 21.4989C11.1888 21.5831 11.1902 21.6726 11.2143 21.7556C11.4155 21.6318 11.6167 21.5081 11.8104 21.3865C12.0041 21.2649 12.1978 21.1433 12.3839 21.024C12.2968 21.0901 12.2172 21.1541 12.1323 21.2277C12.0861 21.2657 12.0452 21.2939 11.999 21.3318C11.9527 21.3698 11.9119 21.398 11.8656 21.4359C11.6892 21.5606 11.5096 21.7026 11.3128 21.8415C11.7326 21.9078 12.3112 21.7319 12.7706 21.4269C12.8857 21.3445 13.0008 21.2621 13.0911 21.1787Z" fill="#F1CF8B"/>
<path d="M10.4026 21.8601C10.2068 21.7207 10.0217 21.5618 9.84197 21.3931C9.79649 21.3491 9.7532 21.3126 9.70772 21.2685C9.66225 21.2245 9.62431 21.1782 9.58102 21.1417C9.49761 21.0515 9.42174 20.959 9.33832 20.8687C9.51269 21.0471 9.69023 21.2082 9.8882 21.3552C10.0862 21.5022 10.2895 21.6395 10.4907 21.7692C10.514 21.6806 10.5126 21.5911 10.5014 21.4962C10.4903 21.4014 10.4521 21.298 10.4064 21.1967C10.3182 20.977 10.1577 20.7619 9.94004 20.547C9.48308 20.099 8.88982 19.8295 8.45117 19.924C8.41271 20.0169 8.38834 20.1303 8.38125 20.2468C8.38147 20.304 8.38388 20.3687 8.39384 20.4312C8.40379 20.4938 8.41593 20.5638 8.44097 20.622C8.47815 20.7502 8.54233 20.8869 8.62695 21.0096C8.70402 21.1344 8.80591 21.2602 8.93579 21.3697C9.39592 21.8005 9.97899 21.9503 10.4026 21.8601Z" fill="#F1CF8B"/>
<path d="M21.1 32.3309C20.9124 32.6143 20.7532 32.9957 20.6793 33.4177C20.6435 33.6325 20.6271 33.8581 20.628 34.0867C20.6284 34.2011 20.6386 34.3208 20.6563 34.4383C20.6741 34.5558 20.6918 34.6733 20.7246 34.7864C20.7858 34.9976 20.8578 35.1893 20.9555 35.3572C21.0044 35.4411 21.0533 35.5251 21.1053 35.5918C21.1595 35.666 21.2191 35.7305 21.2765 35.7874C21.401 35.9067 21.5243 35.9935 21.6583 36.061C21.7902 36.1209 21.9283 36.1462 22.0578 36.1414C21.9528 35.7794 21.8371 35.4368 21.7419 35.0801C21.6916 34.9067 21.6413 34.7332 21.5931 34.5673C21.5691 34.4843 21.545 34.4013 21.521 34.3184C21.4969 34.2354 21.4729 34.1524 21.4466 34.0619C21.5023 34.2257 21.5708 34.3775 21.6318 34.5315C21.695 34.6931 21.7582 34.8546 21.8214 35.0162C21.8868 35.1853 21.95 35.3468 22.0229 35.5137C22.0883 35.6828 22.1613 35.8497 22.2288 36.0264C22.3603 35.7184 22.4083 35.3202 22.3949 34.9071C22.3832 34.6979 22.3619 34.4833 22.333 34.271C22.2966 34.0608 22.2451 33.8549 22.1839 33.6438C22.1204 33.425 22.0485 33.2333 21.968 33.0686C21.9289 32.99 21.8897 32.9114 21.8431 32.835C21.7986 32.7661 21.7541 32.6973 21.7139 32.6435C21.5243 32.4123 21.3253 32.2901 21.1 32.3309Z" fill="#F1CF8B"/>
<path d="M19.1638 34.0288C19.1893 34.2013 19.2223 34.3716 19.2478 34.5441C19.2809 34.7144 19.3063 34.8869 19.3416 35.0647C19.5261 34.7987 19.6595 34.4411 19.7345 34.0514C19.7747 33.8517 19.7977 33.6488 19.8033 33.4427C19.8165 33.2345 19.8125 33.0231 19.8009 32.8139C19.7929 32.7017 19.7795 32.5993 19.7684 32.5044C19.7475 32.4042 19.731 32.319 19.7123 32.2264C19.6695 32.0507 19.616 31.8945 19.5562 31.7728C19.4889 31.6534 19.4162 31.5436 19.3318 31.4782C19.2452 31.4052 19.1448 31.3689 19.0358 31.3596C18.9143 31.4766 18.8048 31.6064 18.6965 31.7687C18.5882 31.9309 18.4918 32.106 18.4171 32.2994C18.26 32.6883 18.1679 33.132 18.187 33.5926C18.2008 33.8093 18.2382 33.9947 18.2907 34.1757C18.3432 34.3567 18.4139 34.5161 18.5029 34.6538C18.5919 34.7915 18.6969 34.9001 18.8105 34.9816C18.8635 35.0235 18.9241 35.0631 18.9803 35.0877C19.0387 35.1199 19.1002 35.1347 19.1618 35.1496C19.1528 35.0622 19.1438 34.9749 19.1424 34.8854C19.1334 34.798 19.1298 34.701 19.1208 34.6136C19.1104 34.4368 19.0925 34.2621 19.0821 34.0852C19.0641 33.9106 19.0559 33.7412 19.0402 33.5741C19.0319 33.4048 19.014 33.2301 19.0058 33.0608C19.0366 33.2236 19.0577 33.381 19.081 33.5459C19.1021 33.7033 19.133 33.8661 19.1638 34.0288Z" fill="#F1CF8B"/>
<path d="M16.9055 32.4434C16.8928 32.766 16.8693 33.108 16.8609 33.4457C17.3274 33.0242 17.6425 32.2215 17.7537 31.4207C17.7652 31.3193 17.7766 31.2178 17.7805 31.1186C17.7825 31.069 17.7867 31.0269 17.7811 30.9794C17.783 30.9298 17.7796 30.8899 17.7816 30.8403C17.7787 30.6612 17.7598 30.5114 17.7226 30.3832C17.6855 30.2549 17.6354 30.1386 17.5617 30.0537C17.4956 29.9666 17.4058 29.9109 17.3054 29.8746C16.763 30.2036 16.2103 30.9198 16.066 31.8038C16.0355 32.0089 16.0308 32.1901 16.0434 32.3745C16.0614 32.5492 16.0944 32.7195 16.1532 32.866C16.2687 33.1514 16.454 33.3675 16.6712 33.468C16.7195 33.1269 16.7677 32.7859 16.8182 32.4524C16.8445 32.2894 16.8611 32.1211 16.8875 31.9581C16.9138 31.7951 16.9326 31.6343 16.9589 31.4713C16.9477 31.6299 16.944 31.7863 16.9327 31.945C16.9183 32.1208 16.9071 32.2794 16.9055 32.4434Z" fill="#F1CF8B"/>
<path d="M15.1433 30.06C15.105 30.2101 15.0668 30.3602 15.0286 30.5103C14.9925 30.6679 14.9467 30.8202 14.9107 30.9778C14.8746 31.1354 14.831 31.2953 14.795 31.4529C15.0543 31.3041 15.3004 31.0529 15.5063 30.7479C15.6092 30.5954 15.71 30.4353 15.7913 30.2646C15.8801 30.0916 15.9571 29.9058 16.0189 29.7243C16.0861 29.5332 16.1329 29.3561 16.1517 29.1953C16.178 29.0323 16.1893 28.8737 16.1769 28.7464C16.15 28.4844 16.0586 28.282 15.8759 28.1878C15.5937 28.286 15.2827 28.4824 15.0109 28.7575C14.8712 28.8961 14.7434 29.0476 14.6373 29.2174C14.5816 29.3072 14.5258 29.3969 14.4776 29.4845C14.4316 29.5796 14.3856 29.6747 14.3493 29.7751C14.2875 29.9566 14.2407 30.1337 14.2263 30.3096C14.218 30.3937 14.2097 30.4779 14.209 30.5599C14.2082 30.6419 14.2225 30.7195 14.2347 30.7895C14.2611 30.9372 14.308 31.0708 14.3657 31.1849C14.3982 31.2409 14.4308 31.2968 14.4688 31.3431C14.5067 31.3893 14.5575 31.4236 14.6008 31.4601C14.7075 31.1512 14.8292 30.8379 14.9283 30.5312C14.9816 30.3767 15.0372 30.2298 15.0829 30.0775C15.1107 30.0041 15.1309 29.9328 15.1587 29.8593C15.1864 29.7859 15.2142 29.7124 15.2419 29.6389C15.2217 29.7102 15.2037 29.789 15.1835 29.8603C15.1762 29.9197 15.156 29.9909 15.1433 30.06Z" fill="#F1CF8B"/>
<path d="M13.411 28.7389C13.3457 28.8805 13.2805 29.0221 13.2153 29.1636C13.4846 29.0774 13.7632 28.8821 14.019 28.6362C14.1457 28.5095 14.2628 28.3775 14.3755 28.2303C14.4882 28.0832 14.5987 27.9285 14.6919 27.7707C14.7905 27.6031 14.8664 27.442 14.9198 27.2876C14.9806 27.1309 15.0135 26.9906 15.026 26.8643C15.0311 26.7974 15.0309 26.7403 15.0231 26.6853C15.0229 26.6281 15.0076 26.5753 14.9923 26.5225C14.9638 26.4245 14.9074 26.3427 14.8306 26.2751C14.2581 26.3593 13.5306 26.7828 13.1029 27.4792C13.0097 27.637 12.9338 27.7981 12.8902 27.9579C12.8646 28.0389 12.8466 28.1177 12.8361 28.1943C12.8256 28.2709 12.8151 28.3476 12.81 28.4145C12.8094 28.5536 12.824 28.6884 12.8665 28.8069C12.884 28.8672 12.9091 28.9254 12.9395 28.9738C12.9698 29.0222 13.0078 29.0684 13.0435 29.1071C13.2086 28.8303 13.3682 28.5633 13.5279 28.2962C13.6051 28.1676 13.68 28.0314 13.7572 27.9027C13.8344 27.774 13.9115 27.6454 13.9887 27.5167C13.8614 27.7825 13.7416 28.0462 13.6143 28.3121C13.5437 28.4634 13.4762 28.5974 13.411 28.7389Z" fill="#F1CF8B"/>
<path d="M12.6 25.998C12.424 26.237 12.2481 26.4761 12.0721 26.7152C12.6166 26.6473 13.2426 26.2122 13.7087 25.6765C13.946 25.3951 14.1207 25.1236 14.1823 24.885C14.2218 24.7673 14.2462 24.6539 14.235 24.559C14.2217 24.4566 14.1879 24.3683 14.1261 24.2963C13.8434 24.2801 13.5104 24.344 13.1894 24.4779C12.8685 24.6119 12.5468 24.8278 12.2794 25.1179C12.1548 25.2522 12.0647 25.3928 11.9898 25.529C11.9148 25.6652 11.8646 25.8024 11.8296 25.9352C11.7767 26.204 11.7992 26.4509 11.9186 26.6371C12.1216 26.4065 12.3267 26.1835 12.5168 25.9648C12.7069 25.7462 12.9045 25.5254 13.0945 25.3067C13.0205 25.4181 12.9315 25.5339 12.8499 25.6475C12.7706 25.7686 12.6891 25.8822 12.6 25.998Z" fill="#F1CF8B"/>
<path d="M11.4052 23.4009C11.3113 23.6407 11.2993 23.8813 11.3712 24.073C11.8423 23.7238 12.281 23.3759 12.7144 23.0376C12.5231 23.2239 12.3297 23.4026 12.1309 23.5911C12.0201 23.6886 11.917 23.7839 11.8213 23.8771C11.7106 23.9746 11.6074 24.0699 11.5042 24.1653C11.7621 24.1804 12.0628 24.1178 12.3633 23.9979C12.6638 23.8781 12.964 23.7011 13.2285 23.4854C13.2952 23.4334 13.3597 23.3738 13.4242 23.3142C13.4811 23.2568 13.5381 23.1994 13.5875 23.1442C13.6885 23.0413 13.7625 22.9299 13.8138 22.8251C13.8406 22.7765 13.8576 22.7225 13.8747 22.6685C13.8939 22.622 13.9034 22.5702 13.9054 22.5206C13.919 22.4267 13.8928 22.3361 13.8515 22.25C13.5956 22.1852 13.2698 22.1897 12.939 22.2612C12.6156 22.3304 12.2743 22.4784 11.9774 22.6953C11.8365 22.8016 11.7302 22.9142 11.6335 23.0321C11.5391 23.1576 11.4598 23.2788 11.4052 23.4009Z" fill="#F1CF8B"/>
<path d="M21.0194 37.9469C20.8591 38.0424 20.6912 38.1401 20.5189 38.2228C20.3489 38.313 20.1691 38.3978 19.9924 38.4654C20.0786 38.4241 20.1625 38.3752 20.2464 38.3263C20.3304 38.2775 20.4121 38.2211 20.4961 38.1722C20.6618 38.0669 20.8178 37.9563 20.9737 37.8456C21.2781 37.6265 21.5694 37.3622 21.8359 37.0969C21.7116 37.0348 21.5691 36.9944 21.418 36.9809C21.2647 36.96 21.1008 36.9585 20.9207 36.9861C20.8334 36.9951 20.7429 37.0214 20.6502 37.0401C20.5597 37.0663 20.4617 37.0947 20.3636 37.1232C20.1697 37.1876 19.9673 37.279 19.7639 37.3952C19.6519 37.4603 19.5475 37.5233 19.4432 37.5863C19.341 37.6568 19.2388 37.7273 19.1441 37.7957C18.9516 37.9496 18.784 38.1045 18.6379 38.2777C18.3437 38.6164 18.1553 38.9818 18.134 39.3313C18.3981 39.5655 18.7924 39.7128 19.2401 39.7056C19.3544 39.7052 19.4665 39.6972 19.5862 39.687C19.7037 39.6693 19.8213 39.6516 19.9419 39.6166C20.1757 39.5488 20.4159 39.4464 20.6397 39.3161C20.856 39.188 21.041 39.0362 21.2065 38.8738C21.3719 38.7113 21.5082 38.5328 21.6197 38.3533C21.8427 37.9943 21.9544 37.6185 21.9606 37.2733C21.8166 37.3968 21.6628 37.515 21.5144 37.6235C21.3455 37.746 21.1895 37.8567 21.0194 37.9469Z" fill="#F1CF8B"/>
<path d="M18.2913 37.0536C18.5738 36.7591 18.7656 36.4337 18.8377 36.1184C18.673 36.1989 18.5083 36.2794 18.3414 36.3523C18.1745 36.4252 18.0032 36.4831 17.8319 36.5409C17.6606 36.5987 17.4796 36.6512 17.2986 36.7037C17.1154 36.7487 16.9375 36.7839 16.7575 36.8115C16.9385 36.7591 17.112 36.7088 17.2908 36.6487C17.4675 36.5812 17.6366 36.5158 17.8088 36.4331C17.9757 36.3602 18.1404 36.2797 18.303 36.1917C18.3794 36.145 18.4655 36.1037 18.5419 36.057C18.6183 36.0103 18.7023 35.9615 18.7787 35.9148C18.7257 35.8729 18.6726 35.8311 18.6143 35.7989C18.5537 35.7593 18.4878 35.7293 18.4165 35.7091C18.2793 35.6589 18.1217 35.6229 17.948 35.616C17.7721 35.6016 17.5931 35.6045 17.3958 35.629C17.1985 35.6535 16.9829 35.6996 16.7717 35.7609C16.3117 35.8943 15.8735 36.1031 15.5304 36.3579C15.3561 36.4902 15.2089 36.631 15.0962 36.7782C14.976 36.9275 14.8925 37.0907 14.8414 37.2527C14.9379 37.3882 15.0721 37.5128 15.2397 37.6114C15.3998 37.7122 15.5856 37.7891 15.795 37.8347C16.0045 37.8802 16.23 37.8966 16.464 37.886C16.5784 37.8855 16.7034 37.8656 16.8187 37.8404C16.9416 37.8129 17.0569 37.7877 17.1829 37.7429C17.407 37.6698 17.6148 37.5686 17.8031 37.4568C17.9893 37.3374 18.1538 37.1998 18.2913 37.0536Z" fill="#F1CF8B"/>
<path d="M16.0827 34.4562C15.7411 34.5471 15.3983 34.6056 15.0414 34.6437C14.8667 34.6616 14.6899 34.672 14.5055 34.6846C14.3264 34.6875 14.1549 34.6882 13.9715 34.6759C14.1483 34.6655 14.3327 34.653 14.5052 34.6275C14.6777 34.602 14.8577 34.5743 15.0356 34.5391C15.2134 34.5039 15.3815 34.4633 15.5475 34.4152C15.7209 34.3649 15.8793 34.319 16.0506 34.2611C16.0105 34.2073 15.965 34.1633 15.9173 34.1117C15.8719 34.0677 15.8091 34.0204 15.7507 33.9883C15.6296 33.909 15.4902 33.8513 15.3229 33.8099C15.1813 33.7446 15.0086 33.7129 14.8155 33.6953C14.6223 33.6778 14.4184 33.6797 14.2017 33.6934C13.2775 33.7489 12.3977 34.1266 12.0915 34.706C12.1578 34.8503 12.2565 34.9933 12.3908 35.1179C12.525 35.2425 12.6797 35.353 12.8677 35.4375C13.0558 35.522 13.262 35.5848 13.4866 35.626C13.5384 35.6355 13.5977 35.6428 13.6571 35.6502C13.7164 35.6575 13.7736 35.6572 13.8308 35.657C13.9473 35.6641 14.067 35.6539 14.1867 35.6438C15.0978 35.5431 15.8098 35.0096 16.0827 34.4562Z" fill="#F1CF8B"/>
<path d="M12.4548 32.9981C12.6597 32.9714 12.8482 32.9167 13.0249 32.8491C13.376 32.7065 13.6599 32.5015 13.8381 32.2699C13.6688 32.2781 13.4972 32.2788 13.3257 32.2795C13.1596 32.2704 12.9934 32.2614 12.8251 32.2448C12.6568 32.2282 12.4862 32.204 12.3157 32.1799C12.2293 32.1641 12.143 32.1482 12.0566 32.1324C11.9778 32.1144 11.8893 32.091 11.8105 32.0729C11.8968 32.0888 11.981 32.0971 12.0652 32.1054C12.1493 32.1137 12.241 32.1198 12.3252 32.1281C12.5011 32.1425 12.6651 32.144 12.8366 32.1433C13.1796 32.142 13.5107 32.1278 13.8481 32.079C13.8382 32.0164 13.798 31.9627 13.7601 31.9164C13.72 31.8627 13.6799 31.8089 13.6344 31.7648C13.5337 31.6714 13.4179 31.5823 13.2742 31.5095C13.2061 31.472 13.1229 31.4389 13.0472 31.4036C12.9716 31.3683 12.8884 31.3352 12.7999 31.3118C12.6206 31.2575 12.4284 31.2151 12.2255 31.1922C12.1144 31.1754 11.9978 31.1683 11.891 31.1665C11.7821 31.1573 11.6753 31.1555 11.5631 31.1635C11.3517 31.1676 11.1393 31.1965 10.9486 31.2436C10.5671 31.3379 10.2398 31.5063 10.0391 31.7444C10.1093 32.043 10.3111 32.3442 10.6324 32.5781C10.7892 32.6961 10.9719 32.7903 11.175 32.8704C11.3759 32.943 11.6027 32.9917 11.8303 33.0156C12.0461 33.0267 12.2575 33.0226 12.4548 32.9981Z" fill="#F1CF8B"/>
<path d="M10.0972 30.0841C10.3034 30.147 10.501 30.1796 10.6919 30.1897C10.8904 30.1975 11.0749 30.1849 11.2549 30.1572C11.6128 30.0944 11.9164 29.9572 12.1303 29.7644C11.9673 29.7381 11.8119 29.7096 11.6467 29.6757C11.4891 29.6396 11.3368 29.5938 11.177 29.5503C11.0247 29.5045 10.8703 29.4511 10.7136 29.3903C10.557 29.3294 10.4154 29.2642 10.2641 29.1936C10.4186 29.2469 10.573 29.3002 10.7328 29.3438C10.8927 29.3874 11.0503 29.4235 11.2155 29.4573C11.5361 29.5197 11.8523 29.567 12.1846 29.5851C12.1671 29.5248 12.1518 29.472 12.1192 29.416C12.0942 29.3579 12.0616 29.3019 12.0215 29.2481C11.9488 29.1384 11.8459 29.0374 11.728 28.9408C11.6652 28.8936 11.6025 28.8464 11.5322 28.8013C11.4619 28.7563 11.3916 28.7113 11.3138 28.6684C11.1581 28.5827 10.982 28.5112 10.793 28.4515C9.98613 28.1785 9.10816 28.196 8.64363 28.5678C8.65779 29.1524 9.23218 29.8362 10.0972 30.0841Z" fill="#F1CF8B"/>
<path d="M9.06452 26.974C9.77792 27.3477 10.562 27.3166 11.0399 27.0472C10.7407 26.9459 10.4651 26.8132 10.1873 26.673C10.0511 26.598 9.90736 26.5252 9.77651 26.4405C9.6403 26.3656 9.50726 26.2733 9.38395 26.1864C9.52235 26.2689 9.65855 26.3439 9.80012 26.4092C9.94387 26.4819 10.0832 26.5396 10.2323 26.6027C10.5208 26.7235 10.8103 26.8194 11.118 26.8937C11.1096 26.6672 10.9997 26.4293 10.8047 26.2078C10.7147 26.0949 10.5999 25.981 10.4722 25.879C10.3348 25.7717 10.1823 25.6688 10.0169 25.5777C9.66447 25.3774 9.27236 25.2376 8.91403 25.1862C8.55571 25.1347 8.22144 25.1662 7.96523 25.2978C7.94743 25.4338 7.95881 25.5858 7.99501 25.7388C8.03121 25.8919 8.09222 26.0459 8.19313 26.1965C8.3874 26.4999 8.67437 26.7846 9.06452 26.974Z" fill="#F1CF8B"/>
<path d="M8.17714 23.4621C8.23136 23.5363 8.29313 23.6084 8.36244 23.6782C8.43175 23.748 8.5086 23.8157 8.59081 23.8736C8.89701 24.1119 9.2266 24.2616 9.5494 24.3315C9.8722 24.4015 10.1785 24.3862 10.4327 24.3043C10.2965 24.2294 10.1732 24.1425 10.0521 24.0631C9.92878 23.9762 9.81301 23.8872 9.69724 23.7981C9.45597 23.6146 9.2405 23.4072 9.03038 23.1902C9.48712 23.581 10.0083 23.9123 10.5303 24.1616C10.5662 23.9468 10.5037 23.7032 10.3593 23.4589C10.2919 23.3395 10.2051 23.2093 10.0979 23.0932C9.99601 22.9674 9.86395 22.8503 9.73189 22.7333C9.43104 22.4853 9.09588 22.2881 8.76214 22.1805C8.43595 22.0707 8.11654 22.0407 7.85257 22.1172C7.80776 22.2447 7.78996 22.3806 7.80134 22.5327C7.80594 22.6049 7.82027 22.6825 7.8346 22.7602C7.84893 22.8378 7.88052 22.9185 7.91212 22.9993C7.97313 23.1533 8.05896 23.3083 8.17714 23.4621Z" fill="#F1CF8B"/>
<path d="M26.876 39.1104C26.0686 38.4124 25.1203 37.8207 24.1198 37.4158C23.6207 37.2171 23.0926 37.0596 22.5637 36.984C21.9928 36.9042 21.4346 36.7554 20.8977 36.5677C18.7428 35.8189 16.807 34.5569 15.1839 32.9917C13.5608 31.4264 12.2804 29.492 11.5493 27.3655C10.8161 25.2315 10.6808 22.9323 11.0141 20.7262C10.7176 22.9462 10.9131 25.2279 11.6829 27.3186C12.4527 29.4093 13.7555 31.28 15.3837 32.7784C17.0119 34.2767 18.9431 35.4665 21.0287 36.1454C21.5515 36.3127 22.0881 36.4433 22.6201 36.5016C23.1964 36.5716 23.7644 36.7258 24.2981 36.9308C25.3751 37.3462 26.3612 37.9269 27.2637 38.6709L26.876 39.1104Z" fill="#F1CF8B"/>
</svg>
