<svg width="60" height="43" viewBox="0 0 60 43" fill="none" xmlns="http://www.w3.org/2000/svg">
<path d="M27.0259 22.8478H33.7459V21.3278H31.4419V11.0718H30.0499C29.3779 11.4878 28.5939 11.7598 27.4899 11.9678V13.1358H29.6019V21.3278H27.0259V22.8478Z" fill="white"/>
<path fill-rule="evenodd" clip-rule="evenodd" d="M17 4.96182L30.4506 2.89905L43.9012 4.96182V22.0054C43.9012 31.3693 30.4506 35.8232 30.4506 35.8232C30.4506 35.8232 17 31.3693 17 22.0054V4.96182Z" fill="#B4B4B4"/>
<path d="M26.8046 23.0623H34.4046V21.4943H31.4606C30.8846 21.4943 30.1486 21.5423 29.5406 21.6063C32.0366 19.2223 33.8446 16.8703 33.8446 14.5983C33.8446 12.4703 32.4526 11.0623 30.2926 11.0623C28.7566 11.0623 27.7166 11.7343 26.7086 12.8223L27.7486 13.8463C28.3726 13.1263 29.1406 12.5343 30.0686 12.5343C31.3806 12.5343 32.0686 13.4143 32.0686 14.6943C32.0686 16.6303 30.2766 18.9183 26.8046 21.9903V23.0623Z" fill="white"/>
<path d="M50.1431 19.8859C50.1317 19.7845 50.1127 19.6809 50.0915 19.5848C50.0725 19.4812 50.0513 19.3851 50.0247 19.2793C50.0057 19.1756 49.9672 19.0827 49.9309 18.9822C49.9521 19.0783 49.9787 19.1841 49.9902 19.2856C50.0016 19.387 50.0056 19.4863 50.017 19.5877C50.0188 19.6945 50.0227 19.7938 50.0266 19.893C50.0208 19.9976 50.015 20.1022 50.0114 20.1993C49.6377 20.0501 49.3468 19.6714 49.2688 19.2072C49.2191 18.9557 49.2514 18.7034 49.3224 18.4869C49.3933 18.2704 49.5322 18.0735 49.7085 17.9448C49.9133 17.9715 50.1211 18.0726 50.2898 18.2523C50.4682 18.4267 50.5848 18.6731 50.6333 18.957C50.6459 19.026 50.6533 19.0854 50.6584 19.1523C50.6635 19.2192 50.6611 19.2839 50.6512 19.3464C50.641 19.4661 50.6135 19.589 50.5656 19.6977C50.5428 19.7484 50.5199 19.799 50.4949 19.8571C50.4645 19.9055 50.4341 19.954 50.3984 19.9926C50.3269 20.07 50.2478 20.1452 50.1581 20.201C50.1563 20.0942 50.1524 19.9949 50.1431 19.8859Z" fill="#DADADA"/>
<path d="M47.9089 21.0777C47.8186 20.9943 47.7456 20.9077 47.705 20.8223C47.676 20.7812 47.6621 20.7445 47.6429 20.6981C47.6215 20.6591 47.6173 20.6171 47.6056 20.5728C47.593 20.5037 47.6073 20.4261 47.6367 20.3529C48.0515 20.2196 48.6747 20.2696 49.1945 20.592C49.429 20.7417 49.5977 20.9215 49.7048 21.1161C49.7583 21.2133 49.7893 21.3041 49.8029 21.398C49.8112 21.4821 49.8098 21.5717 49.7857 21.6546C49.5845 21.5309 49.3833 21.4071 49.1896 21.2855C48.9959 21.164 48.8022 21.0424 48.6161 20.923C48.7032 20.9891 48.7828 21.0531 48.8677 21.1268C48.9139 21.1647 48.9548 21.1929 49.001 21.2309C49.0473 21.2688 49.0881 21.297 49.1344 21.3349C49.3108 21.4597 49.4904 21.6017 49.6872 21.7405C49.2674 21.8068 48.6888 21.6309 48.2294 21.326C48.1143 21.2436 47.9992 21.1611 47.9089 21.0777Z" fill="#DADADA"/>
<path d="M50.5974 21.7592C50.7932 21.6197 50.9783 21.4608 51.158 21.2922C51.2035 21.2481 51.2468 21.2116 51.2923 21.1676C51.3378 21.1235 51.3757 21.0773 51.419 21.0408C51.5024 20.9505 51.5783 20.858 51.6617 20.7678C51.4873 20.9461 51.3098 21.1072 51.1118 21.2542C50.9138 21.4012 50.7105 21.5385 50.5093 21.6682C50.486 21.5797 50.4874 21.4902 50.4986 21.3953C50.5097 21.3004 50.5479 21.197 50.5936 21.0958C50.6818 20.8761 50.8423 20.661 51.06 20.4461C51.5169 19.9981 52.1102 19.7286 52.5488 19.8231C52.5873 19.916 52.6117 20.0294 52.6188 20.1459C52.6185 20.203 52.6161 20.2678 52.6062 20.3303C52.5962 20.3928 52.5841 20.4629 52.559 20.521C52.5219 20.6492 52.4577 20.786 52.3731 20.9086C52.296 21.0334 52.1941 21.1592 52.0642 21.2688C51.6041 21.6995 51.021 21.8493 50.5974 21.7592Z" fill="#DADADA"/>
<path d="M39.9 32.23C40.0876 32.5133 40.2468 32.8947 40.3207 33.3168C40.3565 33.5316 40.3729 33.7571 40.372 33.9858C40.3716 34.1001 40.3614 34.2198 40.3437 34.3373C40.3259 34.4548 40.3082 34.5723 40.2754 34.6855C40.2142 34.8966 40.1422 35.0884 40.0445 35.2562C39.9956 35.3402 39.9467 35.4241 39.8947 35.4908C39.8405 35.565 39.7809 35.6295 39.7235 35.6865C39.599 35.8057 39.4757 35.8926 39.3417 35.96C39.2098 36.0199 39.0717 36.0453 38.9422 36.0404C39.0472 35.6784 39.1629 35.3358 39.2581 34.9792C39.3084 34.8057 39.3587 34.6322 39.4069 34.4663C39.4309 34.3833 39.455 34.3004 39.479 34.2174C39.5031 34.1344 39.5271 34.0515 39.5534 33.961C39.4977 34.1247 39.4292 34.2765 39.3682 34.4306C39.305 34.5921 39.2418 34.7537 39.1786 34.9152C39.1132 35.0843 39.05 35.2459 38.9771 35.4128C38.9117 35.5819 38.8387 35.7488 38.7712 35.9254C38.6397 35.6175 38.5917 35.2193 38.6051 34.8062C38.6168 34.597 38.6381 34.3824 38.667 34.17C38.7034 33.9598 38.7549 33.754 38.8161 33.5428C38.8796 33.3241 38.9515 33.1323 39.032 32.9676C39.0711 32.889 39.1103 32.8104 39.1569 32.734C39.2014 32.6652 39.2459 32.5963 39.2861 32.5425C39.4757 32.3114 39.6747 32.1892 39.9 32.23Z" fill="#DADADA"/>
<path d="M41.8362 33.9279C41.8107 34.1004 41.7777 34.2707 41.7522 34.4432C41.7191 34.6135 41.6937 34.7859 41.6584 34.9638C41.4739 34.6977 41.3405 34.3401 41.2655 33.9504C41.2253 33.7507 41.2023 33.5479 41.1967 33.3418C41.1835 33.1336 41.1875 32.9222 41.1991 32.7129C41.2071 32.6008 41.2205 32.4984 41.2316 32.4035C41.2525 32.3033 41.269 32.2181 41.2877 32.1254C41.3305 31.9498 41.384 31.7936 41.4438 31.6719C41.5111 31.5524 41.5838 31.4427 41.6682 31.3772C41.7548 31.3042 41.8552 31.2679 41.9642 31.2587C42.0857 31.3756 42.1952 31.5055 42.3035 31.6677C42.4118 31.83 42.5082 32.0051 42.5829 32.1985C42.74 32.5874 42.8321 33.0311 42.813 33.4916C42.7992 33.7084 42.7618 33.8938 42.7093 34.0748C42.6568 34.2558 42.5861 34.4152 42.4971 34.5529C42.4081 34.6906 42.3031 34.7991 42.1895 34.8807C42.1365 34.9225 42.0759 34.9622 42.0197 34.9868C41.9613 35.0189 41.8998 35.0338 41.8382 35.0486C41.8472 34.9613 41.8562 34.874 41.8576 34.7844C41.8666 34.6971 41.8702 34.6 41.8792 34.5127C41.8896 34.3358 41.9075 34.1612 41.9179 33.9843C41.9359 33.8096 41.9441 33.6403 41.9598 33.4732C41.9681 33.3038 41.986 33.1292 41.9942 32.9598C41.9634 33.1226 41.9423 33.28 41.919 33.445C41.8979 33.6024 41.867 33.7651 41.8362 33.9279Z" fill="#DADADA"/>
<path d="M44.0945 32.3425C44.1072 32.665 44.1307 33.0071 44.1391 33.3447C43.6726 32.9233 43.3575 32.1206 43.2463 31.3198C43.2348 31.2183 43.2234 31.1169 43.2195 31.0176C43.2175 30.968 43.2133 30.9259 43.2189 30.8785C43.217 30.8289 43.2204 30.789 43.2184 30.7393C43.2213 30.5603 43.2402 30.4104 43.2774 30.2822C43.3145 30.154 43.3646 30.0377 43.4383 29.9528C43.5044 29.8657 43.5942 29.8099 43.6946 29.7736C44.237 30.1026 44.7897 30.8189 44.934 31.7029C44.9645 31.9079 44.9692 32.0892 44.9566 32.2736C44.9386 32.4483 44.9056 32.6186 44.8468 32.765C44.7313 33.0504 44.546 33.2665 44.3288 33.367C44.2805 33.026 44.2323 32.6849 44.1818 32.3514C44.1555 32.1884 44.1389 32.0201 44.1125 31.8571C44.0862 31.6941 44.0674 31.5333 44.0411 31.3704C44.0523 31.529 44.056 31.6854 44.0673 31.844C44.0817 32.0199 44.0929 32.1785 44.0945 32.3425Z" fill="#DADADA"/>
<path d="M45.8567 29.9591C45.895 30.1091 45.9332 30.2592 45.9714 30.4093C46.0075 30.567 46.0533 30.7192 46.0893 30.8769C46.1254 31.0345 46.169 31.1943 46.205 31.3519C45.9457 31.2031 45.6996 30.9519 45.4937 30.6469C45.3908 30.4944 45.29 30.3344 45.2087 30.1636C45.1199 29.9907 45.0429 29.8049 44.9811 29.6234C44.9139 29.4322 44.8671 29.2551 44.8483 29.0943C44.822 28.9313 44.8107 28.7727 44.8231 28.6455C44.85 28.3835 44.9414 28.181 45.1241 28.0868C45.4063 28.185 45.7173 28.3815 45.9891 28.6565C46.1288 28.7952 46.2566 28.9467 46.3627 29.1164C46.4184 29.2062 46.4742 29.2959 46.5224 29.3835C46.5684 29.4786 46.6144 29.5737 46.6507 29.6742C46.7125 29.8556 46.7593 30.0327 46.7737 30.2086C46.782 30.2928 46.7903 30.3769 46.791 30.4589C46.7918 30.5409 46.7775 30.6185 46.7653 30.6886C46.7389 30.8363 46.692 30.9698 46.6343 31.0839C46.6018 31.1399 46.5692 31.1959 46.5312 31.2421C46.4933 31.2883 46.4425 31.3227 46.3992 31.3592C46.2925 31.0502 46.1708 30.7369 46.0717 30.4302C46.0184 30.2757 45.9628 30.1288 45.9171 29.9766C45.8893 29.9031 45.8691 29.8318 45.8413 29.7584C45.8136 29.6849 45.7858 29.6114 45.7581 29.538C45.7783 29.6093 45.7963 29.6881 45.8165 29.7593C45.8238 29.8187 45.844 29.89 45.8567 29.9591Z" fill="#DADADA"/>
<path d="M47.589 28.638C47.6543 28.7796 47.7195 28.9211 47.7847 29.0627C47.5154 28.9764 47.2368 28.7812 46.981 28.5353C46.8543 28.4086 46.7372 28.2765 46.6245 28.1294C46.5118 27.9822 46.4013 27.8276 46.3081 27.6697C46.2095 27.5021 46.1336 27.3411 46.0802 27.1866C46.0194 27.03 45.9865 26.8896 45.974 26.7634C45.9689 26.6965 45.9691 26.6393 45.9769 26.5843C45.9771 26.5272 45.9924 26.4744 46.0077 26.4216C46.0362 26.3235 46.0926 26.2418 46.1694 26.1741C46.7419 26.2583 47.4694 26.6819 47.8971 27.3782C47.9903 27.5361 48.0662 27.6971 48.1098 27.8569C48.1354 27.9379 48.1534 28.0167 48.1639 28.0934C48.1744 28.17 48.1849 28.2466 48.19 28.3135C48.1906 28.4527 48.176 28.5874 48.1335 28.7059C48.116 28.7663 48.0909 28.8244 48.0605 28.8728C48.0302 28.9213 47.9922 28.9675 47.9565 29.0062C47.7914 28.7294 47.6318 28.4623 47.4721 28.1953C47.3949 28.0666 47.32 27.9304 47.2428 27.8017C47.1656 27.6731 47.0885 27.5444 47.0113 27.4157C47.1386 27.6816 47.2584 27.9453 47.3857 28.2111C47.4563 28.3624 47.5238 28.4964 47.589 28.638Z" fill="#DADADA"/>
<path d="M48.4 25.897C48.576 26.1361 48.7519 26.3752 48.9279 26.6142C48.3834 26.5463 47.7574 26.1113 47.2913 25.5755C47.054 25.2941 46.8793 25.0227 46.8177 24.7841C46.7782 24.6663 46.7538 24.553 46.765 24.4581C46.7783 24.3557 46.8121 24.2674 46.8739 24.1953C47.1566 24.1792 47.4896 24.2431 47.8106 24.377C48.1315 24.5109 48.4532 24.7269 48.7206 25.017C48.8452 25.1512 48.9353 25.2918 49.0102 25.428C49.0852 25.5642 49.1354 25.7014 49.1704 25.8342C49.2233 26.103 49.2008 26.35 49.0814 26.5361C48.8784 26.3056 48.6733 26.0825 48.4832 25.8639C48.2931 25.6453 48.0955 25.4244 47.9055 25.2058C47.9795 25.3172 48.0685 25.433 48.1501 25.5465C48.2294 25.6677 48.3109 25.7812 48.4 25.897Z" fill="#DADADA"/>
<path d="M49.5948 23.2999C49.6887 23.5398 49.7007 23.7803 49.6288 23.9721C49.1577 23.6229 48.719 23.2749 48.2856 22.9367C48.4769 23.1229 48.6703 23.3017 48.8691 23.4902C48.9799 23.5877 49.083 23.683 49.1787 23.7761C49.2894 23.8737 49.3926 23.969 49.4958 24.0643C49.2379 24.0795 48.9372 24.0168 48.6367 23.897C48.3362 23.7771 48.036 23.6001 47.7715 23.3844C47.7048 23.3324 47.6403 23.2728 47.5758 23.2132C47.5189 23.1558 47.4619 23.0985 47.4125 23.0432C47.3115 22.9404 47.2375 22.829 47.1862 22.7241C47.1594 22.6755 47.1424 22.6215 47.1253 22.5675C47.1061 22.521 47.0966 22.4692 47.0946 22.4196C47.081 22.3257 47.1072 22.2352 47.1485 22.1491C47.4044 22.0843 47.7302 22.0888 48.061 22.1602C48.3844 22.2294 48.7257 22.3775 49.0226 22.5944C49.1635 22.7006 49.2698 22.8132 49.3665 22.9312C49.4609 23.0567 49.5402 23.1778 49.5948 23.2999Z" fill="#DADADA"/>
<path d="M39.9806 37.8459C40.1409 37.9414 40.3088 38.0392 40.4811 38.1218C40.6511 38.212 40.8309 38.2969 41.0076 38.3645C40.9214 38.3231 40.8375 38.2743 40.7536 38.2254C40.6696 38.1765 40.5879 38.1201 40.5039 38.0712C40.3382 37.966 40.1822 37.8553 40.0263 37.7447C39.7219 37.5256 39.4306 37.2612 39.1641 36.9959C39.2884 36.9338 39.4309 36.8934 39.582 36.88C39.7353 36.859 39.8992 36.8575 40.0793 36.8852C40.1666 36.8942 40.2571 36.9204 40.3498 36.9391C40.4403 36.9653 40.5383 36.9938 40.6364 37.0222C40.8303 37.0866 41.0327 37.178 41.2361 37.2942C41.3481 37.3594 41.4525 37.4224 41.5568 37.4853C41.659 37.5558 41.7612 37.6264 41.8559 37.6947C42.0484 37.8486 42.216 38.0035 42.3621 38.1767C42.6563 38.5155 42.8447 38.8808 42.866 39.2304C42.6019 39.4645 42.2076 39.6118 41.7599 39.6047C41.6456 39.6042 41.5335 39.5962 41.4138 39.586C41.2963 39.5683 41.1787 39.5506 41.0581 39.5156C40.8243 39.4478 40.5841 39.3455 40.3603 39.2151C40.144 39.087 39.959 38.9353 39.7935 38.7728C39.6281 38.6104 39.4918 38.4319 39.3803 38.2524C39.1573 37.8934 39.0456 37.5175 39.0394 37.1723C39.1834 37.2959 39.3372 37.4141 39.4856 37.5225C39.6545 37.6451 39.8105 37.7557 39.9806 37.8459Z" fill="#DADADA"/>
<path d="M42.7087 36.9527C42.4262 36.6582 42.2344 36.3327 42.1623 36.0175C42.327 36.0979 42.4917 36.1784 42.6586 36.2513C42.8255 36.3243 42.9968 36.3821 43.1681 36.4399C43.3394 36.4978 43.5204 36.5503 43.7014 36.6028C43.8846 36.6477 44.0625 36.6829 44.2425 36.7106C44.0615 36.6581 43.888 36.6078 43.7092 36.5478C43.5325 36.4802 43.3634 36.4148 43.1912 36.3322C43.0243 36.2592 42.8596 36.1788 42.697 36.0908C42.6206 36.0441 42.5345 36.0028 42.4581 35.9561C42.3817 35.9094 42.2977 35.8605 42.2213 35.8138C42.2743 35.772 42.3274 35.7301 42.3857 35.698C42.4463 35.6583 42.5122 35.6284 42.5835 35.6081C42.7207 35.558 42.8783 35.5219 43.052 35.5151C43.2279 35.5007 43.4069 35.5035 43.6042 35.528C43.8015 35.5525 44.0171 35.5987 44.2283 35.6599C44.6883 35.7933 45.1265 36.0021 45.4696 36.257C45.6439 36.3893 45.7911 36.5301 45.9038 36.6772C46.024 36.8265 46.1075 36.9898 46.1586 37.1518C46.0621 37.2873 45.9279 37.4119 45.7603 37.5105C45.6002 37.6112 45.4144 37.6882 45.205 37.7337C44.9955 37.7793 44.77 37.7957 44.536 37.785C44.4216 37.7846 44.2966 37.7647 44.1813 37.7394C44.0584 37.712 43.9431 37.6867 43.8171 37.642C43.593 37.5688 43.3852 37.4677 43.1969 37.3559C43.0107 37.2365 42.8462 37.0988 42.7087 36.9527Z" fill="#DADADA"/>
<path d="M44.9173 34.3553C45.2589 34.4461 45.6017 34.5047 45.9586 34.5427C46.1333 34.5607 46.3101 34.5711 46.4945 34.5837C46.6736 34.5865 46.8451 34.5872 47.0285 34.575C46.8517 34.5646 46.6673 34.552 46.4948 34.5265C46.3223 34.501 46.1423 34.4733 45.9644 34.4381C45.7866 34.4029 45.6185 34.3623 45.4525 34.3142C45.2791 34.2639 45.1207 34.218 44.9494 34.1602C44.9895 34.1064 45.035 34.0623 45.0827 34.0107C45.1281 33.9667 45.1909 33.9195 45.2493 33.8874C45.3704 33.808 45.5098 33.7503 45.6771 33.7089C45.8187 33.6436 45.9914 33.612 46.1845 33.5944C46.3777 33.5768 46.5816 33.5787 46.7983 33.5925C47.7225 33.6479 48.6023 34.0257 48.9085 34.605C48.8422 34.7493 48.7435 34.8924 48.6092 35.017C48.475 35.1416 48.3203 35.2521 48.1323 35.3366C47.9442 35.421 47.738 35.4839 47.5134 35.5251C47.4616 35.5346 47.4023 35.5419 47.3429 35.5492C47.2836 35.5565 47.2264 35.5563 47.1692 35.5561C47.0527 35.5632 46.933 35.553 46.8133 35.5428C45.9022 35.4421 45.1902 34.9086 44.9173 34.3553Z" fill="#DADADA"/>
<path d="M48.5452 32.8971C48.3403 32.8704 48.1518 32.8158 47.9751 32.7482C47.624 32.6055 47.3401 32.4005 47.1619 32.169C47.3312 32.1772 47.5028 32.1779 47.6743 32.1785C47.8404 32.1695 48.0066 32.1604 48.1749 32.1438C48.3432 32.1272 48.5138 32.1031 48.6843 32.079C48.7707 32.0631 48.857 32.0473 48.9434 32.0314C49.0222 32.0134 49.1107 31.99 49.1895 31.972C49.1032 31.9878 49.019 31.9961 48.9348 32.0044C48.8507 32.0127 48.759 32.0188 48.6748 32.0271C48.4989 32.0416 48.3349 32.0431 48.1634 32.0424C47.8204 32.041 47.4893 32.0268 47.1519 31.978C47.1618 31.9155 47.202 31.8617 47.2399 31.8155C47.28 31.7617 47.3201 31.7079 47.3656 31.6639C47.4663 31.5704 47.5821 31.4814 47.7258 31.4086C47.7939 31.3711 47.8771 31.338 47.9528 31.3027C48.0284 31.2674 48.1116 31.2343 48.2001 31.2109C48.3794 31.1566 48.5716 31.1142 48.7745 31.0912C48.8856 31.0744 49.0022 31.0673 49.109 31.0656C49.2179 31.0563 49.3247 31.0546 49.4369 31.0626C49.6483 31.0666 49.8607 31.0955 50.0514 31.1426C50.4329 31.2369 50.7602 31.4054 50.9609 31.6435C50.8907 31.942 50.6889 32.2432 50.3676 32.4771C50.2108 32.5952 50.0281 32.6894 49.825 32.7695C49.6241 32.842 49.3973 32.8908 49.1697 32.9147C48.9539 32.9257 48.7425 32.9216 48.5452 32.8971Z" fill="#DADADA"/>
<path d="M50.9028 29.9832C50.6966 30.046 50.499 30.0787 50.3081 30.0887C50.1096 30.0965 49.9251 30.084 49.7451 30.0563C49.3872 29.9934 49.0836 29.8563 48.8697 29.6634C49.0327 29.6371 49.1881 29.6086 49.3533 29.5747C49.5109 29.5387 49.6632 29.4929 49.823 29.4493C49.9753 29.4035 50.1297 29.3502 50.2864 29.2893C50.443 29.2284 50.5846 29.1632 50.7359 29.0926C50.5814 29.1459 50.427 29.1993 50.2672 29.2429C50.1073 29.2864 49.9497 29.3225 49.7845 29.3564C49.4639 29.4188 49.1477 29.4661 48.8154 29.4842C48.8329 29.4238 48.8482 29.371 48.8808 29.3151C48.9058 29.2569 48.9384 29.201 48.9785 29.1472C49.0512 29.0374 49.1541 28.9364 49.272 28.8398C49.3348 28.7926 49.3975 28.7454 49.4678 28.7004C49.5381 28.6553 49.6084 28.6103 49.6862 28.5675C49.8419 28.4818 50.018 28.4102 50.207 28.3505C51.0139 28.0776 51.8918 28.095 52.3564 28.4669C52.3422 29.0514 51.7678 29.7352 50.9028 29.9832Z" fill="#DADADA"/>
<path d="M51.9355 26.8731C51.2221 27.2467 50.438 27.2156 49.9601 26.9462C50.2593 26.8449 50.5349 26.7123 50.8127 26.572C50.9489 26.4971 51.0926 26.4243 51.2235 26.3396C51.3597 26.2646 51.4927 26.1724 51.616 26.0855C51.4777 26.168 51.3414 26.243 51.1999 26.3082C51.0561 26.381 50.9168 26.4387 50.7677 26.5017C50.4792 26.6225 50.1897 26.7184 49.882 26.7927C49.8904 26.5663 50.0003 26.3283 50.1953 26.1069C50.2853 25.9939 50.4001 25.8801 50.5278 25.7781C50.6652 25.6708 50.8177 25.5678 50.9831 25.4768C51.3355 25.2764 51.7276 25.1367 52.086 25.0852C52.4443 25.0338 52.7786 25.0653 53.0348 25.1968C53.0526 25.3328 53.0412 25.4849 53.005 25.6379C52.9688 25.7909 52.9078 25.9449 52.8069 26.0955C52.6126 26.399 52.3256 26.6837 51.9355 26.8731Z" fill="#DADADA"/>
<path d="M52.8229 23.3612C52.7686 23.4354 52.7069 23.5074 52.6376 23.5772C52.5682 23.6471 52.4914 23.7147 52.4092 23.7727C52.103 24.0109 51.7734 24.1607 51.4506 24.2306C51.1278 24.3005 50.8215 24.2853 50.5673 24.2034C50.7035 24.1284 50.8268 24.0415 50.9479 23.9622C51.0712 23.8753 51.187 23.7862 51.3028 23.6971C51.544 23.5136 51.7595 23.3063 51.9696 23.0892C51.5129 23.4801 50.9917 23.8113 50.4697 24.0606C50.4338 23.8458 50.4963 23.6023 50.6407 23.358C50.7081 23.2385 50.7949 23.1083 50.9021 22.9923C51.004 22.8665 51.1361 22.7494 51.2681 22.6323C51.569 22.3843 51.9041 22.1872 52.2379 22.0795C52.5641 21.9697 52.8835 21.9397 53.1474 22.0162C53.1922 22.1437 53.21 22.2797 53.1987 22.4317C53.1941 22.504 53.1797 22.5816 53.1654 22.6592C53.1511 22.7368 53.1195 22.8176 53.0879 22.8984C53.0269 23.0524 52.941 23.2074 52.8229 23.3612Z" fill="#DADADA"/>
<path d="M34.124 39.0094C34.9314 38.3115 35.8797 37.7197 36.8802 37.3149C37.3793 37.1162 37.9074 36.9586 38.4363 36.883C39.0072 36.8033 39.5654 36.6545 40.1023 36.4667C42.2572 35.718 44.193 34.456 45.8161 32.8907C47.4392 31.3254 48.7196 29.391 49.4507 27.2646C50.1839 25.1306 50.3192 22.8314 49.9859 20.6252C50.2824 22.8453 50.0869 25.127 49.3171 27.2177C48.5473 29.3084 47.2445 31.1791 45.6163 32.6774C43.9881 34.1758 42.0569 35.3655 39.9713 36.0445C39.4485 36.2118 38.9119 36.3423 38.3799 36.4006C37.8036 36.4706 37.2356 36.6248 36.7019 36.8298C35.6249 37.2452 34.6388 37.826 33.7363 38.57L34.124 39.0094Z" fill="#DADADA"/>
<path d="M10.8569 19.8859C10.8683 19.7845 10.8873 19.6809 10.9085 19.5848C10.9275 19.4812 10.9487 19.3851 10.9753 19.2793C10.9943 19.1756 11.0328 19.0827 11.0691 18.9822C11.0479 19.0783 11.0213 19.1841 11.0098 19.2856C10.9984 19.387 10.9944 19.4863 10.983 19.5877C10.9812 19.6945 10.9773 19.7938 10.9734 19.893C10.9792 19.9976 10.985 20.1022 10.9886 20.1993C11.3623 20.0501 11.6532 19.6714 11.7312 19.2072C11.7809 18.9557 11.7486 18.7034 11.6776 18.4869C11.6067 18.2704 11.4678 18.0735 11.2915 17.9448C11.0867 17.9715 10.8789 18.0726 10.7102 18.2523C10.5318 18.4267 10.4152 18.6731 10.3667 18.957C10.3541 19.026 10.3467 19.0854 10.3416 19.1523C10.3365 19.2192 10.3389 19.2839 10.3488 19.3464C10.359 19.4661 10.3865 19.589 10.4344 19.6977C10.4572 19.7484 10.4801 19.799 10.5051 19.8571C10.5355 19.9055 10.5659 19.954 10.6016 19.9926C10.6731 20.07 10.7522 20.1452 10.8419 20.201C10.8437 20.0942 10.8476 19.9949 10.8569 19.8859Z" fill="#DADADA"/>
<path d="M13.0911 21.0777C13.1814 20.9943 13.2544 20.9077 13.295 20.8223C13.324 20.7812 13.3379 20.7445 13.3571 20.6981C13.3785 20.6591 13.3827 20.6171 13.3944 20.5728C13.407 20.5037 13.3927 20.4261 13.3633 20.3529C12.9485 20.2196 12.3253 20.2696 11.8055 20.592C11.571 20.7417 11.4023 20.9215 11.2952 21.1161C11.2417 21.2133 11.2107 21.3041 11.1971 21.398C11.1888 21.4821 11.1902 21.5717 11.2143 21.6546C11.4155 21.5309 11.6167 21.4071 11.8104 21.2855C12.0041 21.164 12.1978 21.0424 12.3839 20.923C12.2968 20.9891 12.2172 21.0531 12.1323 21.1268C12.0861 21.1647 12.0452 21.1929 11.999 21.2309C11.9527 21.2688 11.9119 21.297 11.8656 21.3349C11.6892 21.4597 11.5096 21.6017 11.3128 21.7405C11.7326 21.8068 12.3112 21.6309 12.7706 21.326C12.8857 21.2436 13.0008 21.1611 13.0911 21.0777Z" fill="#DADADA"/>
<path d="M10.4026 21.7592C10.2068 21.6197 10.0217 21.4608 9.84197 21.2922C9.79649 21.2481 9.7532 21.2116 9.70772 21.1676C9.66225 21.1235 9.62431 21.0773 9.58102 21.0408C9.49761 20.9505 9.42174 20.858 9.33832 20.7678C9.51269 20.9461 9.69023 21.1072 9.8882 21.2542C10.0862 21.4012 10.2895 21.5385 10.4907 21.6682C10.514 21.5797 10.5126 21.4902 10.5014 21.3953C10.4903 21.3004 10.4521 21.197 10.4064 21.0958C10.3182 20.8761 10.1577 20.661 9.94004 20.4461C9.48308 19.9981 8.88982 19.7286 8.45117 19.8231C8.41271 19.916 8.38834 20.0294 8.38125 20.1459C8.38147 20.203 8.38388 20.2678 8.39384 20.3303C8.40379 20.3928 8.41593 20.4629 8.44097 20.521C8.47815 20.6492 8.54233 20.786 8.62695 20.9086C8.70402 21.0334 8.80591 21.1592 8.93579 21.2688C9.39592 21.6995 9.97899 21.8493 10.4026 21.7592Z" fill="#DADADA"/>
<path d="M21.1 32.23C20.9124 32.5133 20.7532 32.8947 20.6793 33.3168C20.6435 33.5316 20.6271 33.7571 20.628 33.9858C20.6284 34.1001 20.6386 34.2198 20.6563 34.3373C20.6741 34.4548 20.6918 34.5723 20.7246 34.6855C20.7858 34.8966 20.8578 35.0884 20.9555 35.2562C21.0044 35.3402 21.0533 35.4241 21.1053 35.4908C21.1595 35.565 21.2191 35.6295 21.2765 35.6865C21.401 35.8057 21.5243 35.8926 21.6583 35.96C21.7902 36.0199 21.9283 36.0453 22.0578 36.0404C21.9528 35.6784 21.8371 35.3358 21.7419 34.9792C21.6916 34.8057 21.6413 34.6322 21.5931 34.4663C21.5691 34.3833 21.545 34.3004 21.521 34.2174C21.4969 34.1344 21.4729 34.0515 21.4466 33.961C21.5023 34.1247 21.5708 34.2765 21.6318 34.4306C21.695 34.5921 21.7582 34.7537 21.8214 34.9152C21.8868 35.0843 21.95 35.2459 22.0229 35.4128C22.0883 35.5819 22.1613 35.7488 22.2288 35.9254C22.3603 35.6175 22.4083 35.2193 22.3949 34.8062C22.3832 34.597 22.3619 34.3824 22.333 34.17C22.2966 33.9598 22.2451 33.754 22.1839 33.5428C22.1204 33.3241 22.0485 33.1323 21.968 32.9676C21.9289 32.889 21.8897 32.8104 21.8431 32.734C21.7986 32.6652 21.7541 32.5963 21.7139 32.5425C21.5243 32.3114 21.3253 32.1892 21.1 32.23Z" fill="#DADADA"/>
<path d="M19.1638 33.9279C19.1893 34.1004 19.2223 34.2707 19.2478 34.4432C19.2809 34.6135 19.3063 34.7859 19.3416 34.9638C19.5261 34.6977 19.6595 34.3401 19.7345 33.9504C19.7747 33.7507 19.7977 33.5479 19.8033 33.3418C19.8165 33.1336 19.8125 32.9222 19.8009 32.7129C19.7929 32.6008 19.7795 32.4984 19.7684 32.4035C19.7475 32.3033 19.731 32.2181 19.7123 32.1254C19.6695 31.9498 19.616 31.7936 19.5562 31.6719C19.4889 31.5524 19.4162 31.4427 19.3318 31.3772C19.2452 31.3042 19.1448 31.2679 19.0358 31.2587C18.9143 31.3756 18.8048 31.5055 18.6965 31.6677C18.5882 31.83 18.4918 32.0051 18.4171 32.1985C18.26 32.5874 18.1679 33.0311 18.187 33.4916C18.2008 33.7084 18.2382 33.8938 18.2907 34.0748C18.3432 34.2558 18.4139 34.4152 18.5029 34.5529C18.5919 34.6906 18.6969 34.7991 18.8105 34.8807C18.8635 34.9225 18.9241 34.9622 18.9803 34.9868C19.0387 35.0189 19.1002 35.0338 19.1618 35.0486C19.1528 34.9613 19.1438 34.874 19.1424 34.7844C19.1334 34.6971 19.1298 34.6 19.1208 34.5127C19.1104 34.3358 19.0925 34.1612 19.0821 33.9843C19.0641 33.8096 19.0559 33.6403 19.0402 33.4732C19.0319 33.3038 19.014 33.1292 19.0058 32.9598C19.0366 33.1226 19.0577 33.28 19.081 33.445C19.1021 33.6024 19.133 33.7651 19.1638 33.9279Z" fill="#DADADA"/>
<path d="M16.9055 32.3425C16.8928 32.665 16.8693 33.0071 16.8609 33.3447C17.3274 32.9233 17.6425 32.1206 17.7537 31.3198C17.7652 31.2183 17.7766 31.1169 17.7805 31.0176C17.7825 30.968 17.7867 30.9259 17.7811 30.8785C17.783 30.8289 17.7796 30.789 17.7816 30.7393C17.7787 30.5603 17.7598 30.4104 17.7226 30.2822C17.6855 30.154 17.6354 30.0377 17.5617 29.9528C17.4956 29.8657 17.4058 29.8099 17.3054 29.7736C16.763 30.1026 16.2103 30.8189 16.066 31.7029C16.0355 31.9079 16.0308 32.0892 16.0434 32.2736C16.0614 32.4483 16.0944 32.6186 16.1532 32.765C16.2687 33.0504 16.454 33.2665 16.6712 33.367C16.7195 33.026 16.7677 32.6849 16.8182 32.3514C16.8445 32.1884 16.8611 32.0201 16.8875 31.8571C16.9138 31.6941 16.9326 31.5333 16.9589 31.3704C16.9477 31.529 16.944 31.6854 16.9327 31.844C16.9183 32.0199 16.9071 32.1785 16.9055 32.3425Z" fill="#DADADA"/>
<path d="M15.1433 29.9591C15.105 30.1091 15.0668 30.2592 15.0286 30.4093C14.9925 30.567 14.9467 30.7192 14.9107 30.8769C14.8746 31.0345 14.831 31.1943 14.795 31.3519C15.0543 31.2031 15.3004 30.9519 15.5063 30.6469C15.6092 30.4944 15.71 30.3344 15.7913 30.1636C15.8801 29.9907 15.9571 29.8049 16.0189 29.6234C16.0861 29.4322 16.1329 29.2551 16.1517 29.0943C16.178 28.9313 16.1893 28.7727 16.1769 28.6455C16.15 28.3835 16.0586 28.181 15.8759 28.0868C15.5937 28.185 15.2827 28.3815 15.0109 28.6565C14.8712 28.7952 14.7434 28.9467 14.6373 29.1164C14.5816 29.2062 14.5258 29.2959 14.4776 29.3835C14.4316 29.4786 14.3856 29.5737 14.3493 29.6742C14.2875 29.8556 14.2407 30.0327 14.2263 30.2086C14.218 30.2928 14.2097 30.3769 14.209 30.4589C14.2082 30.5409 14.2225 30.6185 14.2347 30.6886C14.2611 30.8363 14.308 30.9698 14.3657 31.0839C14.3982 31.1399 14.4308 31.1959 14.4688 31.2421C14.5067 31.2883 14.5575 31.3227 14.6008 31.3592C14.7075 31.0502 14.8292 30.7369 14.9283 30.4302C14.9816 30.2757 15.0372 30.1288 15.0829 29.9766C15.1107 29.9031 15.1309 29.8318 15.1587 29.7584C15.1864 29.6849 15.2142 29.6114 15.2419 29.538C15.2217 29.6093 15.2037 29.6881 15.1835 29.7593C15.1762 29.8187 15.156 29.89 15.1433 29.9591Z" fill="#DADADA"/>
<path d="M13.411 28.638C13.3457 28.7796 13.2805 28.9211 13.2153 29.0627C13.4846 28.9764 13.7632 28.7812 14.019 28.5353C14.1457 28.4086 14.2628 28.2765 14.3755 28.1294C14.4882 27.9822 14.5987 27.8276 14.6919 27.6697C14.7905 27.5021 14.8664 27.3411 14.9198 27.1866C14.9806 27.03 15.0135 26.8896 15.026 26.7634C15.0311 26.6965 15.0309 26.6393 15.0231 26.5843C15.0229 26.5272 15.0076 26.4744 14.9923 26.4216C14.9638 26.3235 14.9074 26.2418 14.8306 26.1741C14.2581 26.2583 13.5306 26.6819 13.1029 27.3782C13.0097 27.5361 12.9338 27.6971 12.8902 27.8569C12.8646 27.9379 12.8466 28.0167 12.8361 28.0934C12.8256 28.17 12.8151 28.2466 12.81 28.3135C12.8094 28.4527 12.824 28.5874 12.8665 28.7059C12.884 28.7663 12.9091 28.8244 12.9395 28.8728C12.9698 28.9213 13.0078 28.9675 13.0435 29.0062C13.2086 28.7294 13.3682 28.4623 13.5279 28.1953C13.6051 28.0666 13.68 27.9304 13.7572 27.8017C13.8344 27.6731 13.9115 27.5444 13.9887 27.4157C13.8614 27.6816 13.7416 27.9453 13.6143 28.2111C13.5437 28.3624 13.4762 28.4964 13.411 28.638Z" fill="#DADADA"/>
<path d="M12.6 25.897C12.424 26.1361 12.2481 26.3752 12.0721 26.6142C12.6166 26.5463 13.2426 26.1113 13.7087 25.5755C13.946 25.2941 14.1207 25.0227 14.1823 24.7841C14.2218 24.6663 14.2462 24.553 14.235 24.4581C14.2217 24.3557 14.1879 24.2674 14.1261 24.1953C13.8434 24.1792 13.5104 24.2431 13.1894 24.377C12.8685 24.5109 12.5468 24.7269 12.2794 25.017C12.1548 25.1512 12.0647 25.2918 11.9898 25.428C11.9148 25.5642 11.8646 25.7014 11.8296 25.8342C11.7767 26.103 11.7992 26.35 11.9186 26.5361C12.1216 26.3056 12.3267 26.0825 12.5168 25.8639C12.7069 25.6453 12.9045 25.4244 13.0945 25.2058C13.0205 25.3172 12.9315 25.433 12.8499 25.5465C12.7706 25.6677 12.6891 25.7812 12.6 25.897Z" fill="#DADADA"/>
<path d="M11.4052 23.2999C11.3113 23.5398 11.2993 23.7803 11.3712 23.9721C11.8423 23.6229 12.281 23.2749 12.7144 22.9367C12.5231 23.1229 12.3297 23.3017 12.1309 23.4902C12.0201 23.5877 11.917 23.683 11.8213 23.7761C11.7106 23.8737 11.6074 23.969 11.5042 24.0643C11.7621 24.0795 12.0628 24.0168 12.3633 23.897C12.6638 23.7771 12.964 23.6001 13.2285 23.3844C13.2952 23.3324 13.3597 23.2728 13.4242 23.2132C13.4811 23.1558 13.5381 23.0985 13.5875 23.0432C13.6885 22.9404 13.7625 22.829 13.8138 22.7241C13.8406 22.6755 13.8576 22.6215 13.8747 22.5675C13.8939 22.521 13.9034 22.4692 13.9054 22.4196C13.919 22.3257 13.8928 22.2352 13.8515 22.1491C13.5956 22.0843 13.2698 22.0888 12.939 22.1602C12.6156 22.2294 12.2743 22.3775 11.9774 22.5944C11.8365 22.7006 11.7302 22.8132 11.6335 22.9312C11.5391 23.0567 11.4598 23.1778 11.4052 23.2999Z" fill="#DADADA"/>
<path d="M21.0194 37.8459C20.8591 37.9414 20.6912 38.0392 20.5189 38.1218C20.3489 38.212 20.1691 38.2969 19.9924 38.3645C20.0786 38.3231 20.1625 38.2743 20.2464 38.2254C20.3304 38.1765 20.4121 38.1201 20.4961 38.0712C20.6618 37.966 20.8178 37.8553 20.9737 37.7447C21.2781 37.5256 21.5694 37.2612 21.8359 36.9959C21.7116 36.9338 21.5691 36.8934 21.418 36.88C21.2647 36.859 21.1008 36.8575 20.9207 36.8852C20.8334 36.8942 20.7429 36.9204 20.6502 36.9391C20.5597 36.9653 20.4617 36.9938 20.3636 37.0222C20.1697 37.0866 19.9673 37.178 19.7639 37.2942C19.6519 37.3594 19.5475 37.4224 19.4432 37.4853C19.341 37.5558 19.2388 37.6264 19.1441 37.6947C18.9516 37.8486 18.784 38.0035 18.6379 38.1767C18.3437 38.5155 18.1553 38.8808 18.134 39.2304C18.3981 39.4645 18.7924 39.6118 19.2401 39.6047C19.3544 39.6042 19.4665 39.5962 19.5862 39.586C19.7037 39.5683 19.8213 39.5506 19.9419 39.5156C20.1757 39.4478 20.4159 39.3455 20.6397 39.2151C20.856 39.087 21.041 38.9353 21.2065 38.7728C21.3719 38.6104 21.5082 38.4319 21.6197 38.2524C21.8427 37.8934 21.9544 37.5175 21.9606 37.1723C21.8166 37.2959 21.6628 37.4141 21.5144 37.5225C21.3455 37.6451 21.1895 37.7557 21.0194 37.8459Z" fill="#DADADA"/>
<path d="M18.2913 36.9527C18.5738 36.6582 18.7656 36.3327 18.8377 36.0175C18.673 36.0979 18.5083 36.1784 18.3414 36.2513C18.1745 36.3243 18.0032 36.3821 17.8319 36.4399C17.6606 36.4978 17.4796 36.5503 17.2986 36.6028C17.1154 36.6477 16.9375 36.6829 16.7575 36.7106C16.9385 36.6581 17.112 36.6078 17.2908 36.5478C17.4675 36.4802 17.6366 36.4148 17.8088 36.3322C17.9757 36.2592 18.1404 36.1788 18.303 36.0908C18.3794 36.0441 18.4655 36.0028 18.5419 35.9561C18.6183 35.9094 18.7023 35.8605 18.7787 35.8138C18.7257 35.772 18.6726 35.7301 18.6143 35.698C18.5537 35.6583 18.4878 35.6284 18.4165 35.6081C18.2793 35.558 18.1217 35.5219 17.948 35.5151C17.7721 35.5007 17.5931 35.5035 17.3958 35.528C17.1985 35.5525 16.9829 35.5987 16.7717 35.6599C16.3117 35.7933 15.8735 36.0021 15.5304 36.257C15.3561 36.3893 15.2089 36.5301 15.0962 36.6772C14.976 36.8265 14.8925 36.9898 14.8414 37.1518C14.9379 37.2873 15.0721 37.4119 15.2397 37.5105C15.3998 37.6112 15.5856 37.6882 15.795 37.7337C16.0045 37.7793 16.23 37.7957 16.464 37.785C16.5784 37.7846 16.7034 37.7647 16.8187 37.7394C16.9416 37.712 17.0569 37.6867 17.1829 37.642C17.407 37.5688 17.6148 37.4677 17.8031 37.3559C17.9893 37.2365 18.1538 37.0988 18.2913 36.9527Z" fill="#DADADA"/>
<path d="M16.0827 34.3553C15.7411 34.4461 15.3983 34.5047 15.0414 34.5427C14.8667 34.5607 14.6899 34.5711 14.5055 34.5837C14.3264 34.5865 14.1549 34.5872 13.9715 34.575C14.1483 34.5646 14.3327 34.552 14.5052 34.5265C14.6777 34.501 14.8577 34.4733 15.0356 34.4381C15.2134 34.4029 15.3815 34.3623 15.5475 34.3142C15.7209 34.2639 15.8793 34.218 16.0506 34.1602C16.0105 34.1064 15.965 34.0623 15.9173 34.0107C15.8719 33.9667 15.8091 33.9195 15.7507 33.8874C15.6296 33.808 15.4902 33.7503 15.3229 33.7089C15.1813 33.6436 15.0086 33.612 14.8155 33.5944C14.6223 33.5768 14.4184 33.5787 14.2017 33.5925C13.2775 33.6479 12.3977 34.0257 12.0915 34.605C12.1578 34.7493 12.2565 34.8924 12.3908 35.017C12.525 35.1416 12.6797 35.2521 12.8677 35.3366C13.0558 35.421 13.262 35.4839 13.4866 35.5251C13.5384 35.5346 13.5977 35.5419 13.6571 35.5492C13.7164 35.5565 13.7736 35.5563 13.8308 35.5561C13.9473 35.5632 14.067 35.553 14.1867 35.5428C15.0978 35.4421 15.8098 34.9086 16.0827 34.3553Z" fill="#DADADA"/>
<path d="M12.4548 32.8971C12.6597 32.8704 12.8482 32.8158 13.0249 32.7482C13.376 32.6055 13.6599 32.4005 13.8381 32.169C13.6688 32.1772 13.4972 32.1779 13.3257 32.1785C13.1596 32.1695 12.9934 32.1604 12.8251 32.1438C12.6568 32.1272 12.4862 32.1031 12.3157 32.079C12.2293 32.0631 12.143 32.0473 12.0566 32.0314C11.9778 32.0134 11.8893 31.99 11.8105 31.972C11.8968 31.9878 11.981 31.9961 12.0652 32.0044C12.1493 32.0127 12.241 32.0188 12.3252 32.0271C12.5011 32.0416 12.6651 32.0431 12.8366 32.0424C13.1796 32.041 13.5107 32.0268 13.8481 31.978C13.8382 31.9155 13.798 31.8617 13.7601 31.8155C13.72 31.7617 13.6799 31.7079 13.6344 31.6639C13.5337 31.5704 13.4179 31.4814 13.2742 31.4086C13.2061 31.3711 13.1229 31.338 13.0472 31.3027C12.9716 31.2674 12.8884 31.2343 12.7999 31.2109C12.6206 31.1566 12.4284 31.1142 12.2255 31.0912C12.1144 31.0744 11.9978 31.0673 11.891 31.0656C11.7821 31.0563 11.6753 31.0546 11.5631 31.0626C11.3517 31.0666 11.1393 31.0955 10.9486 31.1426C10.5671 31.2369 10.2398 31.4054 10.0391 31.6435C10.1093 31.942 10.3111 32.2432 10.6324 32.4771C10.7892 32.5952 10.9719 32.6894 11.175 32.7695C11.3759 32.842 11.6027 32.8908 11.8303 32.9147C12.0461 32.9257 12.2575 32.9216 12.4548 32.8971Z" fill="#DADADA"/>
<path d="M10.0972 29.9832C10.3034 30.046 10.501 30.0787 10.6919 30.0887C10.8904 30.0965 11.0749 30.084 11.2549 30.0563C11.6128 29.9934 11.9164 29.8563 12.1303 29.6634C11.9673 29.6371 11.8119 29.6086 11.6467 29.5747C11.4891 29.5387 11.3368 29.4929 11.177 29.4493C11.0247 29.4035 10.8703 29.3502 10.7136 29.2893C10.557 29.2284 10.4154 29.1632 10.2641 29.0926C10.4186 29.1459 10.573 29.1993 10.7328 29.2429C10.8927 29.2864 11.0503 29.3225 11.2155 29.3564C11.5361 29.4188 11.8523 29.4661 12.1846 29.4842C12.1671 29.4238 12.1518 29.371 12.1192 29.3151C12.0942 29.2569 12.0616 29.201 12.0215 29.1472C11.9488 29.0374 11.8459 28.9364 11.728 28.8398C11.6652 28.7926 11.6025 28.7454 11.5322 28.7004C11.4619 28.6553 11.3916 28.6103 11.3138 28.5675C11.1581 28.4818 10.982 28.4102 10.793 28.3505C9.98613 28.0776 9.10816 28.095 8.64363 28.4669C8.65779 29.0514 9.23218 29.7352 10.0972 29.9832Z" fill="#DADADA"/>
<path d="M9.06452 26.8731C9.77792 27.2467 10.562 27.2156 11.0399 26.9462C10.7407 26.8449 10.4651 26.7123 10.1873 26.572C10.0511 26.4971 9.90736 26.4243 9.77651 26.3396C9.6403 26.2646 9.50726 26.1724 9.38395 26.0855C9.52235 26.168 9.65855 26.243 9.80012 26.3082C9.94387 26.381 10.0832 26.4387 10.2323 26.5017C10.5208 26.6225 10.8103 26.7184 11.118 26.7927C11.1096 26.5663 10.9997 26.3283 10.8047 26.1069C10.7147 25.9939 10.5999 25.8801 10.4722 25.7781C10.3348 25.6708 10.1823 25.5678 10.0169 25.4768C9.66447 25.2764 9.27236 25.1367 8.91403 25.0852C8.55571 25.0338 8.22144 25.0653 7.96523 25.1968C7.94743 25.3328 7.95881 25.4849 7.99501 25.6379C8.03121 25.7909 8.09222 25.9449 8.19313 26.0955C8.3874 26.399 8.67437 26.6837 9.06452 26.8731Z" fill="#DADADA"/>
<path d="M8.17714 23.3612C8.23136 23.4354 8.29313 23.5074 8.36244 23.5772C8.43175 23.6471 8.5086 23.7147 8.59081 23.7727C8.89701 24.0109 9.2266 24.1607 9.5494 24.2306C9.8722 24.3005 10.1785 24.2853 10.4327 24.2034C10.2965 24.1284 10.1732 24.0415 10.0521 23.9622C9.92878 23.8753 9.81301 23.7862 9.69724 23.6971C9.45597 23.5136 9.2405 23.3063 9.03038 23.0892C9.48712 23.4801 10.0083 23.8113 10.5303 24.0606C10.5662 23.8458 10.5037 23.6023 10.3593 23.358C10.2919 23.2385 10.2051 23.1083 10.0979 22.9923C9.99601 22.8665 9.86395 22.7494 9.73189 22.6323C9.43104 22.3843 9.09588 22.1872 8.76214 22.0795C8.43595 21.9697 8.11654 21.9397 7.85257 22.0162C7.80776 22.1437 7.78996 22.2797 7.80134 22.4317C7.80594 22.504 7.82027 22.5816 7.8346 22.6592C7.84893 22.7368 7.88052 22.8176 7.91212 22.8984C7.97313 23.0524 8.05896 23.2074 8.17714 23.3612Z" fill="#DADADA"/>
<path d="M26.876 39.0094C26.0686 38.3115 25.1203 37.7197 24.1198 37.3149C23.6207 37.1162 23.0926 36.9586 22.5637 36.883C21.9928 36.8033 21.4346 36.6545 20.8977 36.4667C18.7428 35.718 16.807 34.456 15.1839 32.8907C13.5608 31.3254 12.2804 29.391 11.5493 27.2646C10.8161 25.1306 10.6808 22.8314 11.0141 20.6252C10.7176 22.8453 10.9131 25.127 11.6829 27.2177C12.4527 29.3084 13.7555 31.1791 15.3837 32.6774C17.0119 34.1758 18.9431 35.3655 21.0287 36.0445C21.5515 36.2118 22.0881 36.3423 22.6201 36.4006C23.1964 36.4706 23.7644 36.6248 24.2981 36.8298C25.3751 37.2452 26.3612 37.826 27.2637 38.57L26.876 39.0094Z" fill="#DADADA"/>
</svg>
